<svg width="320" height="293" viewBox="0 0 320 293" fill="none" xmlns="http://www.w3.org/2000/svg">
<path d="M139.638 257.137C140.073 257.214 140.636 257.201 141.327 257.099C142.236 257.035 142.909 257.042 143.344 257.119C144.445 255.967 145.092 254.847 145.284 253.759C145.361 253.323 145.515 252.453 145.746 251.147C145.977 249.842 146.227 248.427 146.496 246.904C146.765 245.38 147.015 243.966 147.246 242.66C147.477 241.354 147.65 240.375 147.766 239.722C147.843 239.287 147.977 238.525 148.17 237.437C148.58 236.388 148.881 235.319 149.073 234.231C149.265 233.142 149.439 232.163 149.592 231.293C150.002 230.243 150.227 229.609 150.265 229.392C150.7 229.469 151.411 229.258 152.397 228.759C153.421 228.042 154.042 227.703 154.26 227.742L154.433 226.762L154.548 226.109C154.408 225.636 153.921 225.213 153.089 224.842C152.257 224.47 151.643 224.137 151.246 223.843C151.285 223.625 151.272 223.062 151.208 222.153C151.401 221.065 151.516 220.412 151.554 220.194C151.772 220.233 152.623 220.495 154.108 220.982C155.632 221.251 156.611 221.425 157.046 221.502C157.046 221.502 157.315 221.886 157.852 222.654C158.031 222.91 158.23 223.057 158.447 223.096C158.293 223.966 157.903 224.907 157.275 225.918C156.865 226.968 156.622 227.71 156.545 228.146L159.905 230.086C160.417 229.728 160.878 229.024 161.288 227.974C161.954 226.745 162.306 226.022 162.345 225.805C162.601 225.625 163.203 225.395 164.15 225.114C165.136 224.615 165.846 224.404 166.282 224.481C165.654 225.492 165.334 226.67 165.321 228.014C165.563 229.179 166.011 229.819 166.664 229.934C167.317 230.05 168.207 230.095 169.333 230.07C170.498 229.827 171.663 229.584 172.828 229.341C174.25 228.919 175.453 228.458 176.439 227.96C177.425 227.461 177.975 226.885 178.091 226.232L178.264 225.252C178.046 225.214 177.758 224.939 177.4 224.426L176.863 223.658L176.536 223.6C176.319 223.562 176.21 223.543 176.21 223.543C176.248 223.325 176.159 223.197 175.941 223.159C174.853 222.966 173.995 223.376 173.368 224.387C172.74 225.398 172.33 226.448 172.138 227.536L170.832 227.305L171.871 221.429L171.218 221.314L169.912 221.083C168.568 221.07 167.364 221.53 166.302 222.464C165.277 223.181 164.33 223.462 163.459 223.309C163.242 223.27 163.152 223.142 163.191 222.924L162.922 222.54L162.384 221.772C162.026 221.26 161.738 220.984 161.52 220.946C161.597 220.511 161.514 219.711 161.272 218.546C161.246 217.419 161.272 216.638 161.349 216.203C161.247 215.512 161.273 214.731 161.427 213.86L162.061 210.269C162.177 209.617 162.369 208.528 162.638 207.005C163.164 205.303 163.446 204.343 163.484 204.125C163.561 203.69 163.882 202.512 164.445 200.592C165.227 198.71 165.675 197.443 165.791 196.79L165.1 194.985L154.654 193.138C154.373 192.191 154.284 190.155 154.387 187.032C154.491 183.908 154.658 181.693 154.888 180.388C154.53 179.876 154.3 179.274 154.198 178.582C153.993 177.2 153.93 176.291 154.007 175.856C154.045 175.638 154.212 175.331 154.506 174.934C154.801 174.537 154.986 174.121 155.063 173.686C154.628 173.609 153.777 173.346 152.51 172.898C151.242 172.449 150.391 172.187 149.956 172.11L149.188 172.647C148.932 172.826 148.784 173.025 148.746 173.242C148.707 173.46 148.579 173.55 148.362 173.511C146.812 175.93 145.768 178.663 145.229 181.71C144.729 184.539 143.832 187.073 142.538 189.313C142.461 189.749 142.128 190.363 141.539 191.156C140.95 191.95 140.438 192.308 140.003 192.231L139.234 192.769C138.978 192.948 138.633 192.999 138.197 192.922C137.109 192.73 136.297 192.249 135.759 191.481C135.222 190.713 134.684 189.945 134.147 189.176C133.827 188.447 133.398 187.697 132.861 186.929C132.323 186.161 131.511 185.681 130.423 185.488C129.77 185.373 128.477 185.705 126.543 186.486C124.61 187.266 123.221 188.142 122.376 189.115C122.337 189.333 122.407 189.57 122.587 189.826C122.548 190.043 122.618 190.28 122.798 190.536L123.777 190.709C123.994 190.748 124.596 190.518 125.582 190.019C126.606 189.302 127.375 188.765 127.887 188.406L128.251 190.154L127.368 191.344L127.079 192.976C126.605 193.117 125.984 193.456 125.216 193.994L124.448 194.531C124.013 194.454 122.854 194.025 120.972 193.243C119.308 192.5 118.15 192.071 117.497 191.956L116.228 199.137C115.869 198.625 114.986 197.908 113.578 196.986C112.209 195.846 111.326 195.129 110.929 194.834L110.276 194.719L108.644 194.43C108.605 194.648 108.074 195.115 107.05 195.832C106.538 196.19 106.115 196.676 105.782 197.291C105.129 197.175 103.766 197.271 101.692 197.577C99.6561 197.666 98.2031 197.634 97.3326 197.48L97.1017 198.786L96.5824 201.724C96.9792 202.018 97.7727 202.607 98.963 203.491C100.371 204.413 101.036 205.092 100.959 205.527C101.279 206.257 101.484 207.64 101.573 209.675C101.7 211.493 101.725 212.62 101.649 213.055L98.7106 212.535C98.493 212.497 98.4035 212.369 98.4419 212.151C98.2628 211.895 98.2117 211.55 98.2886 211.114C98.3271 210.897 98.1864 210.423 97.8666 209.693C97.8028 208.784 97.5534 208.291 97.1181 208.214C96.939 207.958 96.0493 207.913 94.449 208.079C93.0663 208.284 92.2662 208.367 92.0485 208.328L91.7221 208.27C91.5045 208.232 91.3764 208.321 91.338 208.539C91.7732 208.616 92.4002 209.512 93.219 211.228C94.0763 212.726 94.4857 213.584 94.4472 213.802C94.3703 214.237 94.4022 214.691 94.5429 215.165L94.9649 216.586C94.8495 217.239 94.5868 218.09 94.1768 219.14C93.9844 220.228 93.3057 220.893 92.1407 221.136C91.667 221.277 90.3036 221.373 88.0504 221.423C85.8357 221.256 84.5108 221.134 84.0755 221.057L82.8077 222.516C82.3725 222.439 81.6812 222.541 80.7337 222.823C80.0424 222.925 79.4599 223.046 78.9862 223.187C79.7797 223.776 80.6947 224.948 81.7311 226.702C82.9852 228.495 83.7529 229.865 84.0342 230.812L83.9765 231.139L83.8034 232.118C83.4319 232.95 83.0796 233.673 82.7466 234.287C82.1575 235.081 81.8629 235.478 81.8629 235.478C81.6068 235.657 81.4595 235.855 81.421 236.073C81.3826 236.291 81.2479 237.052 81.0171 238.358C81.0039 239.702 80.8692 240.464 80.6132 240.643C80.4977 241.296 79.9086 242.089 78.8458 243.024C77.9621 244.214 77.373 245.007 77.0784 245.404C75.9903 245.212 74.3197 245.141 72.0665 245.191C70.031 245.28 68.7956 245.286 68.3604 245.21C68.4758 244.557 68.6555 242.905 68.8996 240.255C69.1436 237.605 69.3233 235.954 69.4387 235.301C69.2596 235.045 69.0997 234.68 68.959 234.207C68.6776 233.259 68.5562 232.677 68.5947 232.459C68.6716 232.024 68.5117 231.659 68.1149 231.364C67.7182 231.07 67.411 230.903 67.1933 230.865C66.7581 230.788 65.9453 230.307 64.755 229.424C63.7439 228.796 63.0207 228.444 62.5854 228.367L62.7585 227.388C63.1817 224.994 63.8544 223.093 64.7765 221.685C65.9548 220.098 67.0242 218.492 67.9849 216.866C68.0618 216.431 68.4141 215.708 69.0417 214.696C69.8869 213.724 70.3287 213.129 70.3672 212.911C70.4057 212.693 70.681 212.405 71.1932 212.047C71.4493 211.868 71.8142 211.708 72.2879 211.567C72.4033 210.915 72.7814 209.41 73.4222 207.055C74.063 204.7 74.678 203.125 75.2671 202.332C75.3056 202.114 75.5298 201.481 75.9398 200.431C76.5674 199.42 77.1054 198.281 77.5538 197.013C78.2584 195.567 78.8156 194.319 79.2256 193.269C79.8917 192.04 80.2632 191.208 80.3401 190.773L80.7441 188.488C80.3088 188.411 80.0016 188.245 79.8225 187.989C79.6818 187.515 79.5026 187.259 79.285 187.22C78.5937 187.323 77.5759 187.367 76.2317 187.354C75.1052 187.379 73.8698 187.385 72.5256 187.372C71.1814 187.359 69.946 187.365 68.8194 187.39C67.7313 187.198 67.0785 187.082 66.8609 187.044C66.3872 187.184 65.5678 187.376 64.4027 187.619C63.2762 187.644 62.4953 187.619 62.06 187.542L61.4072 187.426L60.4279 187.253C60.2102 187.215 59.4678 186.971 58.2006 186.523C57.1894 185.895 56.4854 185.434 56.0887 185.139C56.1656 184.704 56.5179 183.981 57.1455 182.97C57.7731 181.959 58.343 181.274 58.8551 180.916L59.0283 179.936L59.1437 179.284C58.7084 179.207 58.3117 178.912 57.9534 178.4L57.4159 177.632L55.8794 178.706C55.5848 179.103 55.0083 180.46 54.1499 182.777C53.2915 185.094 52.7661 186.796 52.5737 187.884L52.2473 187.827L51.268 187.654C50.8712 187.359 50.3657 187.045 49.7513 186.712C49.3545 186.418 48.9577 186.123 48.561 185.829C47.9466 185.495 47.441 185.182 47.0442 184.887C46.8266 184.849 46.1803 184.061 45.1055 182.525C44.2482 181.027 43.7107 180.258 43.4931 180.22C43.1348 179.708 42.3797 178.901 41.2279 177.8C40.3322 176.519 39.3084 175.328 38.1565 174.227C37.2608 172.946 36.3266 171.884 35.3539 171.038C34.4197 169.976 33.7542 169.297 33.3574 169.002C33.3959 168.785 33.3063 168.657 33.0887 168.618C33.1272 168.401 33.1656 168.183 33.2041 167.965C33.0249 167.709 32.9546 167.472 32.9931 167.255C33.07 166.819 33.2365 166.512 33.4926 166.333C33.5311 166.116 33.6784 165.917 33.9345 165.738C34.0114 165.303 34.4725 164.599 35.3177 163.626C36.1629 162.653 36.7328 161.969 37.0274 161.572C37.5396 161.214 38.4996 161.496 39.9075 162.418C41.3155 163.34 42.2371 163.839 42.6723 163.916C42.7877 163.263 42.9927 162.739 43.2873 162.342C43.3642 161.907 43.4219 161.58 43.4604 161.363C43.7165 161.183 43.8637 160.985 43.9022 160.767C43.467 160.691 43.1598 160.524 42.9806 160.268C42.763 160.229 42.5646 160.082 42.3855 159.826L45.3432 158.329C46.8665 158.598 49.6252 158.862 53.6193 159.119C57.6134 159.376 61.8252 159.672 66.2545 160.006C70.6839 160.34 74.8956 160.636 78.8897 160.893C82.8838 161.15 85.5722 161.177 86.9548 160.972C88.0429 161.165 90.1296 161.421 93.2147 161.742C96.3383 161.846 98.4827 161.776 99.6477 161.533C101.479 160.061 102.875 158.513 103.835 156.887C104.834 155.044 105.981 153.003 107.274 150.763C107.787 150.404 108.305 149.374 108.831 147.671C109.574 146.007 109.984 144.958 110.061 144.523C110.496 144.6 111.059 144.587 111.751 144.485C112.186 144.562 112.512 144.619 112.73 144.658C113.204 144.517 113.549 144.466 113.767 144.504C113.805 144.287 114.03 143.653 114.44 142.604C114.85 141.554 115.272 141.068 115.707 141.145C115.963 140.965 116.597 141.19 117.608 141.817C118.619 142.445 119.451 142.816 120.104 142.932L120.508 140.647C120.547 140.429 120.208 139.808 119.491 138.784C118.992 137.798 118.762 137.196 118.8 136.979L119.839 131.103C120.493 127.403 121.563 123.889 123.049 120.561C124.574 117.016 125.919 113.214 127.085 109.156C127.124 108.939 127.053 108.702 126.874 108.446C126.516 107.933 126.337 107.677 126.337 107.677C125.901 107.6 125.012 107.555 123.667 107.542C122.362 107.311 121.728 107.087 121.767 106.869C121.331 106.792 121.12 106.082 121.134 104.738C121.185 103.176 121.23 102.286 121.269 102.069C121.307 101.851 121.128 101.595 120.731 101.3C120.335 101.006 119.919 100.82 119.483 100.743C118.971 101.101 117.857 101.69 116.141 102.509C114.464 103.11 113.37 103.59 112.857 103.948L110.899 103.602L107.961 103.082C107.999 102.865 107.929 102.628 107.75 102.372C107.212 101.603 106.944 101.219 106.944 101.219C106.585 100.707 105.555 100.188 103.853 99.663C102.406 98.9584 101.465 98.5677 101.03 98.4908C100.812 98.4523 100.288 98.2473 99.4556 97.8758C98.8412 97.5428 98.4445 97.2482 98.2653 96.9921C98.739 96.8514 99.1232 96.5827 99.4177 96.1859C100.007 95.3924 100.429 94.9061 100.686 94.7269C100.903 94.7654 101.537 94.9896 102.586 95.3996C103.854 95.848 104.743 95.8931 105.256 95.5348C105.691 95.6117 106.254 95.5991 106.945 95.4969C107.637 95.3947 108.002 95.2348 108.04 95.0172C108.258 95.0556 108.277 94.9468 108.098 94.6907L107.56 93.9225L96.8459 91.6917C96.9228 91.2565 96.5453 90.8531 95.7133 90.4816C95.0989 90.1486 94.5741 89.9436 94.1389 89.8666C93.9597 89.6105 93.5437 89.4248 92.8908 89.3094C92.6348 89.4885 92.3979 89.5589 92.1803 89.5204L90.9684 96.3754C89.9188 95.9655 89.2148 95.5044 88.8565 94.9922C88.7159 94.5185 88.5752 94.0448 88.4345 93.5711C88.3323 92.8797 88.2109 92.2972 88.0702 91.8235C87.9295 91.3498 87.6415 91.0744 87.2063 90.9975C85.683 90.7282 84.441 91.4063 83.4804 93.0319C82.7758 94.4783 81.8026 95.5405 80.5606 96.2187C80.2023 95.7065 79.0631 95.1685 77.143 94.6046C75.4789 93.8616 74.2117 93.4132 73.3412 93.2593C72.9444 92.9647 72.4196 92.7597 71.7668 92.6443C70.461 92.4135 69.5713 92.3684 69.0976 92.5091C67.9326 92.752 66.934 92.6877 66.102 92.3162C65.27 91.9447 64.7452 91.7397 64.5276 91.7012C64.0154 92.0595 63.5543 92.7635 63.1443 93.8131C62.7344 94.8627 61.9853 95.2914 60.8972 95.099L58.2858 94.6373C57.7736 94.9956 57.0246 95.4243 56.0387 95.9233C55.0913 96.2046 54.2911 96.2876 53.6383 96.1722L54.1576 93.2343C53.0695 93.042 51.1494 92.4781 48.3973 91.5427C45.8628 90.6458 44.2883 90.0309 43.6739 89.6978C43.4563 89.6594 43.1684 89.384 42.8101 88.8719C42.4518 88.3597 42.2919 87.9948 42.3303 87.7771C41.7544 87.2265 41.0955 85.8757 40.3537 83.7248C39.8294 81.6123 39.4777 80.428 39.2986 80.1719C39.414 79.5191 39.5102 78.975 39.5871 78.5398C39.8817 78.143 40.0482 77.8358 40.0867 77.6182C39.869 77.5797 39.5234 77.6308 39.0497 77.7715C38.832 77.733 38.5056 77.6753 38.0704 77.5984L36.4382 77.3099C35.8238 76.9768 35.1199 76.5157 34.3263 75.9266C33.5328 75.3375 32.8865 74.55 32.3876 73.5641C32.1699 73.5256 31.9397 72.9239 31.6968 71.7588L31.2748 70.3377C31.7869 69.9794 32.7025 69.2436 34.0214 68.1302C35.5964 66.8377 36.6016 66.2299 37.0368 66.3068L70.6591 72.2506C70.7998 72.7243 71.1389 73.3453 71.6763 74.1136C72.4699 74.7027 73.0842 75.0357 73.5195 75.1127L73.8459 75.1704L75.1516 75.4012C75.3693 75.4397 76.0413 75.4463 77.1679 75.421C78.2945 75.3958 79.4211 75.3705 80.5476 75.3452C81.7127 75.1023 82.7497 74.949 83.6586 74.8853C84.7852 74.86 85.4573 74.8666 85.6749 74.9051L100.364 77.5019C102.323 77.8481 103.392 78.1493 103.571 78.4054C104.006 78.4823 104.333 78.54 104.55 78.5785C105.421 78.7324 106.47 79.1424 107.699 79.8084C109.145 80.513 110.029 81.2301 110.348 81.9599C110.784 82.0369 111.27 82.4595 111.807 83.2278C112.345 83.996 112.793 84.6363 113.151 85.1485C113.663 84.7902 114.451 84.1439 115.514 83.2097C116.832 82.0963 117.639 81.3413 117.934 80.9445L119.24 81.1753C120.545 81.4061 121.153 82.4113 121.063 84.1907C121.19 86.0086 121.433 87.1736 121.792 87.6858L122.329 88.4541C122.764 88.531 123.11 88.4799 123.366 88.3008C123.584 88.3393 123.712 88.2497 123.75 88.0321L126.708 86.5351C127.002 86.1384 127.822 85.9466 129.166 85.9598C130.766 85.7938 132.11 85.807 133.199 85.9994C133.416 86.0379 134.088 86.0445 135.215 86.0192C136.341 85.994 137.577 85.9879 138.921 86.0011C140.265 86.0143 141.609 86.0275 142.954 86.0407C144.298 86.054 145.315 86.0094 146.007 85.9072L147.927 84.5636C148.44 84.2053 148.843 83.8278 149.138 83.431C149.65 83.0727 150.053 82.6952 150.348 82.2984C151.078 81.9786 151.904 81.1147 152.826 79.7068C153.786 78.0812 154.414 77.0701 154.708 76.6733L154.286 75.2522C154.005 74.3048 153.864 73.831 153.864 73.831L154.095 72.5253L154.153 72.1989C154.665 71.8406 155.267 71.6103 155.958 71.5081C156.65 71.4059 157.104 71.3741 157.322 71.4125C157.399 70.9773 157.565 70.6701 157.821 70.4909C158.077 70.3118 158.314 70.2415 158.532 70.2799C159.082 69.704 159.512 68.5456 159.819 66.8046C160.166 64.846 160.217 63.2842 159.974 62.1192L162.106 61.4861C162.58 61.3454 162.925 61.2943 163.143 61.3328C163.399 61.1537 163.566 60.8465 163.643 60.4112C163.681 60.1936 163.592 60.0656 163.374 60.0271L155.866 58.6998C155.943 58.2646 156.186 57.5222 156.596 56.4725C157.006 55.4229 157.25 54.6805 157.327 54.2452C157.365 54.0276 157.57 53.5028 157.942 52.6708C158.531 51.8772 158.934 51.4997 159.152 51.5382C159.779 50.527 160.209 49.3686 160.439 48.0629C160.926 46.578 161.752 45.7141 162.917 45.4712L164.701 52.5192C165.213 52.1609 166.071 51.7515 167.275 51.291C168.734 50.6513 169.701 50.2612 170.175 50.1205C170.392 50.159 170.629 50.0886 170.885 49.9095C171.141 49.7303 171.506 49.5704 171.98 49.4297L173.401 49.0077C173.836 49.0846 174.124 49.36 174.265 49.8337C174.623 50.3459 174.783 50.7108 174.745 50.9284C174.706 51.146 174.392 51.6516 173.803 52.4451C173.47 53.0595 173.048 53.5459 172.535 53.9041C172.497 54.1218 172.567 54.3586 172.747 54.6147C172.708 54.8323 172.67 55.05 172.631 55.2676C172.849 55.3061 172.938 55.4341 172.9 55.6517L173.879 55.8248C174.251 54.9928 174.731 54.1801 175.32 53.3865C175.871 52.8106 176.313 52.2154 176.646 51.601C177.017 50.769 177.459 50.1739 177.971 49.8156L178.087 49.1627L178.26 48.1834C178.119 47.7097 177.985 46.5639 177.857 44.746L177.666 42.0192L176.476 41.1355C176.079 40.8409 175.772 40.6744 175.554 40.6359C175.337 40.5975 175.138 40.4502 174.959 40.1941L173.616 38.2734L175.421 37.5827L176.88 38.8505L180.337 36.4319L178.878 35.1641L185.448 26.5633C186.165 27.5876 186.939 28.2855 187.771 28.6571C188.859 28.8494 189.947 29.0418 191.035 29.2341L194.3 29.8112L197.199 28.6407L197.526 28.6984C197.961 28.7753 198.307 28.7242 198.563 28.5451C198.998 28.622 199.344 28.5709 199.6 28.3918C199.485 29.0446 199.164 30.2223 198.639 31.9248C198.369 33.4481 198.216 34.3186 198.177 34.5362C198.062 35.1891 197.268 36.5075 195.795 38.4913C194.578 40.296 193.714 41.3775 193.201 41.7358C193.047 42.6063 192.433 44.1807 191.356 46.4591C190.319 48.5199 189.544 49.7295 189.032 50.0877C188.52 50.4461 187.892 51.4572 187.149 53.1212C186.624 54.8237 186.323 55.8926 186.246 56.3278C185.772 56.4685 185.055 57.3516 184.094 58.9772C183.172 60.3851 182.474 61.1594 182 61.3001C180.041 64.7688 178.298 68.276 176.774 71.8216C175.288 75.1497 174.199 78.7723 173.506 82.6894C173.429 83.1247 173.384 84.0144 173.371 85.3586C173.396 86.4852 173.351 87.3749 173.236 88.0277C173.633 88.3223 174.682 88.7323 176.385 89.2577C178.126 89.5654 179.956 90.0012 181.876 90.5651C183.835 90.9113 185.557 91.3279 187.041 91.8148C188.782 92.1226 189.979 92.3342 190.632 92.4496C190.85 92.4881 191.739 92.5332 193.301 92.5848C195.081 92.675 196.227 92.5409 196.739 92.1826C200.592 91.9661 203.844 91.9799 206.494 92.2239C209.144 92.468 212.101 92.8785 215.365 93.4556L212.884 107.492C212.448 107.415 211.668 107.389 210.541 107.415C209.632 107.478 208.921 107.689 208.409 108.048C208.153 108.227 208.006 108.425 207.967 108.643C207.711 108.822 207.487 109.456 207.295 110.544C206.872 112.937 207.14 115.229 208.099 117.419L208.694 117.86L209.078 117.592C209.808 117.272 210.91 116.12 212.382 114.136C214.111 111.973 215.072 110.348 215.264 109.259L216.476 102.404C216.988 102.046 217.885 101.419 219.165 100.523C220.446 99.6276 221.303 99.2182 221.739 99.2952C222.174 99.3721 222.731 100.032 223.409 101.274C224.087 102.516 224.496 103.373 224.637 103.847L224.579 104.174L224.464 104.826C223.913 105.402 223.49 105.889 223.196 106.285C222.94 106.465 222.793 106.663 222.754 106.881C222.754 106.881 222.626 106.97 222.37 107.149L221.986 107.418C221.909 107.853 221.813 108.397 221.697 109.05C221.799 109.741 221.831 110.196 221.793 110.414L223.751 110.76C223.79 110.542 223.758 110.088 223.656 109.396C223.771 108.744 223.867 108.2 223.944 107.764L224.713 107.227C224.969 107.048 225.116 106.849 225.155 106.632C225.193 106.414 225.34 106.216 225.596 106.037C225.814 106.075 226.268 106.043 226.96 105.941C227.907 105.66 228.599 105.557 229.034 105.634L229.495 103.023L230.13 99.4321C229.695 99.3552 229.388 99.1886 229.209 98.9326C228.85 98.4204 228.69 98.0555 228.729 97.8379L230.88 95.1885C231.034 94.318 231.124 92.5386 231.151 89.8502C231.433 86.9827 231.632 85.2225 231.748 84.5696L225.546 83.4732C225.93 81.297 226.692 79.5242 227.832 78.1547C229.011 76.5676 230.189 74.9806 231.367 73.3935C231.662 72.9967 232.193 72.5296 232.961 71.9921C233.947 71.4932 234.696 71.0645 235.208 70.7063C235.682 70.5656 236.322 70.1177 237.129 69.3626C237.974 68.3899 238.435 67.686 238.512 67.2507C238.807 66.854 238.845 66.6364 238.628 66.5979C238.628 66.5979 238.666 66.3803 238.743 65.945C238.526 65.9065 238.327 65.7593 238.148 65.5032C238.007 65.0295 237.79 64.991 237.495 65.3877L236.611 66.5781C236.022 67.3716 235.709 67.8772 235.67 68.0948C235.235 68.0179 234.838 67.7233 234.48 67.2111C234.301 66.955 234.23 66.7182 234.269 66.5005L234.557 64.8684L234.903 62.9098C234.942 62.6922 235.345 62.3147 236.114 61.7772C237.099 61.2782 237.849 60.8496 238.361 60.4913C238.578 60.5298 238.994 60.7155 239.609 61.0486C240.441 61.4201 240.895 61.3882 240.972 60.953C241.19 60.9914 241.811 60.6524 242.835 59.9358C243.859 59.2192 244.48 58.8801 244.698 58.9186C244.737 58.701 245.23 58.4515 246.177 58.1701C247.342 57.9272 248.142 57.8442 248.577 57.9212C249.128 57.3453 249.935 56.5902 250.998 55.656C252.278 54.7603 253.046 54.2228 253.302 54.0436C253.085 54.0052 252.995 53.8771 253.034 53.6595L253.207 52.6802C252.772 52.6033 252.228 52.5071 251.575 52.3917C251.178 52.0971 250.871 51.9306 250.653 51.8922C250.615 52.1098 250.013 52.34 248.848 52.5829L247.427 53.0049L246.447 52.8318L245.795 52.7164C245.577 52.6779 245.289 52.4026 244.931 51.8904C244.79 51.4167 244.739 51.071 244.777 50.8534C247.991 49.1774 251.121 48.6086 254.168 49.1472C255.691 49.4165 256.485 50.0056 256.549 50.9146C256.651 51.6059 257.028 52.0093 257.681 52.1247L258.334 52.2401C259.615 51.3444 260.389 50.1348 260.659 48.6115C261.184 46.909 261.543 45.5137 261.735 44.4256C262.388 44.541 263.06 44.5476 263.752 44.4454C264.661 44.3817 265.333 44.3883 265.768 44.4652C266.319 43.8893 266.869 43.3134 267.42 42.7375C267.971 42.1615 268.284 41.656 268.361 41.2207L275.543 42.4903L276.54 46.3695L280.151 44.988L280.093 45.3144L279.804 46.9466C279.804 46.9466 279.42 47.2153 278.652 47.7528C278.357 48.1495 278.082 48.4375 277.826 48.6166C277.531 49.0134 277.179 49.7366 276.769 50.7862C276.398 51.6182 275.988 52.6679 275.539 53.9351C275.347 55.0232 275.046 56.0921 274.636 57.1417C274.443 58.2298 274.328 58.8827 274.29 59.1003C273.7 59.8938 273.015 61.2314 272.234 63.1131C271.708 64.8155 271.407 65.8844 271.33 66.3197C271.253 66.7549 270.939 67.2605 270.389 67.8364C270.056 68.4508 269.87 68.8668 269.832 69.0844C269.755 69.5197 269.236 70.55 268.275 72.1756C267.353 73.5835 266.655 74.3578 266.181 74.4985C265.848 75.1129 264.907 76.6296 263.357 79.0487C262.064 81.2887 261.269 82.607 260.975 83.0038C260.463 83.3621 259.656 84.1172 258.555 85.269C257.453 86.4208 256.864 87.2144 256.787 87.6496L255.557 90.7985C254.737 92.8977 254.308 94.0562 254.27 94.2738C254.231 94.4914 253.7 94.9585 252.675 95.6751C251.869 96.4302 251.446 96.9165 251.408 97.1342L250.484 102.357L249.734 106.601C250.092 107.113 250.534 108.425 251.058 110.538C251.8 112.689 252.132 113.982 252.055 114.417L251.94 115.07C251.901 115.287 251.863 115.505 251.824 115.723C252.004 115.979 252.074 116.216 252.035 116.433C251.818 116.395 251.511 116.228 251.114 115.934C250.935 115.678 250.736 115.53 250.519 115.492C250.557 115.274 250.09 114.743 249.117 113.898C248.145 113.052 247.697 112.412 247.774 111.977C247.556 111.938 247.319 112.009 247.063 112.188C247.063 112.188 246.954 112.169 246.737 112.13C246.481 112.309 246.244 112.38 246.026 112.341C245.988 112.559 245.911 112.994 245.795 113.647C245.936 114.121 245.987 114.466 245.949 114.684C245.731 114.645 245.308 115.132 244.681 116.143C244.309 116.975 244.085 117.609 244.008 118.044L244.546 118.812C244.725 119.068 244.923 119.215 245.141 119.254C245.538 119.548 246.261 119.901 247.31 120.311C248.616 120.542 249.487 120.695 249.922 120.772L249.538 121.041C249.384 121.912 248.884 122.833 248.039 123.806C247.411 124.817 246.842 125.502 246.329 125.86C245.856 126.001 245.491 126.161 245.235 126.34C244.761 126.48 244.268 126.73 243.756 127.088C243.538 127.05 242.738 127.133 241.355 127.337C239.973 127.542 239.064 127.605 238.629 127.528L238.398 128.834L238.109 130.466C238.544 130.543 238.775 131.145 238.8 132.271C239.081 133.219 239.203 133.801 239.164 134.019C238.87 134.416 238.063 135.171 236.744 136.284C235.643 137.436 234.875 137.974 234.439 137.897L230.196 137.146L224.973 136.223L223.898 134.687C223.54 134.174 223.571 134.629 223.993 136.05C224.454 137.254 225.074 138.822 225.855 140.755L228.618 147.976C228.541 148.412 228.048 148.661 227.139 148.725C226.268 148.571 225.27 148.507 224.143 148.532C223.055 148.34 222.057 148.275 221.148 148.339C220.277 148.185 219.804 148.326 219.727 148.761C219.688 148.979 219.266 149.465 218.459 150.22C217.87 151.014 217.556 151.519 217.517 151.737L218.055 152.505C218.413 153.017 218.701 153.293 218.919 153.331C219.316 153.626 220.256 154.016 221.741 154.503C223.482 154.811 224.461 154.984 224.679 155.023L224.621 155.349C224.583 155.567 224.455 155.656 224.237 155.618C224.199 155.835 223.815 156.104 223.085 156.424C222.355 156.744 221.773 156.865 221.337 156.788L219.779 165.602L218.106 175.068C218.067 175.286 218.041 176.067 218.028 177.411C218.271 178.576 218.463 179.395 218.604 179.869C218.846 181.034 220.165 181.828 222.559 182.251C223.864 182.482 224.664 182.399 224.959 182.003C225.51 181.427 225.952 180.832 226.285 180.217C226.656 179.385 227.098 178.79 227.61 178.432C228.161 177.856 229.307 177.722 231.048 178.029C231.009 178.247 230.855 179.118 230.586 180.641C230.573 181.985 230.508 182.984 230.393 183.636L231.89 186.594L231.659 187.9L231.601 188.226C231.089 188.585 230.462 189.596 229.719 191.26C229.347 192.092 228.995 192.815 228.662 193.429C228.623 193.647 228.329 194.044 227.778 194.62C227.483 195.016 227.119 195.176 226.683 195.099C226.876 194.011 226.614 192.955 225.897 191.931C225.436 190.727 224.553 190.01 223.248 189.779L222.44 194.349L221.287 195.155C221.031 195.335 220.794 195.405 220.577 195.366L213.395 194.097C212.883 194.455 212.332 195.031 211.743 195.825C211.41 196.439 211.225 196.855 211.186 197.073C211.109 197.508 210.738 198.34 210.072 199.569C209.444 200.58 209.021 201.066 208.804 201.028C208.509 201.424 207.869 201.872 206.883 202.371C205.897 202.87 205.257 203.318 204.962 203.715L202.677 203.311C202.46 203.273 202.095 203.432 201.583 203.791C201.327 203.97 201.179 204.168 201.141 204.386C199.681 205.026 198.017 206.19 196.147 207.879C194.316 209.351 193.144 210.266 192.632 210.624C192.555 211.059 192.222 211.674 191.633 212.467C191.3 213.082 191.095 213.607 191.018 214.042L192.98 202.943L188.084 202.078C187.674 203.127 187.283 204.068 186.911 204.9C186.091 206.999 185.605 208.484 185.451 209.355L184.758 213.272L184.066 217.189C183.912 218.06 184.27 218.572 185.141 218.726C185.025 219.378 184.634 220.319 183.968 221.548C183.558 222.598 182.892 223.826 181.97 225.234C181.266 226.681 180.58 228.018 179.914 229.247C179.248 230.476 178.64 231.378 178.089 231.954C177.833 232.133 177.462 232.965 176.975 234.45C176.488 235.935 176.206 236.895 176.129 237.33C175.834 237.727 175.354 238.54 174.688 239.769C174.06 240.78 173.708 241.503 173.631 241.938C173.004 242.949 172.254 243.378 171.384 243.224C170.514 243.07 169.682 242.699 168.888 242.11L163.564 256.99C163.129 256.913 162.438 257.016 161.49 257.297C161.017 257.438 160.652 257.597 160.396 257.777C159.883 258.135 158.84 258.96 157.265 260.253C155.69 261.545 154.646 262.371 154.134 262.729L158.051 263.422C157.859 264.51 157.647 265.707 157.416 267.012C157.147 268.536 156.251 269.163 154.727 268.893C154.215 269.252 153.159 269.514 151.559 269.68C149.958 269.846 148.941 269.89 148.505 269.813L146.873 269.525C145.132 269.217 144.121 268.589 143.84 267.642C143.776 266.733 143.642 265.587 143.438 264.204C143.079 263.692 142.401 262.45 141.403 260.479C140.584 258.763 139.996 257.649 139.638 257.137ZM71.7995 239.085C70.9291 238.931 70.4169 239.289 70.263 240.16C70.0706 241.248 70.4097 241.869 71.2802 242.023C71.933 242.138 72.3557 241.652 72.548 240.564C72.7019 239.693 72.4524 239.2 71.7995 239.085ZM78.0017 240.181C76.9136 239.989 76.2926 240.328 76.1387 241.198C75.9464 242.287 76.3943 242.927 77.4824 243.119C78.3528 243.273 78.8843 242.806 79.0766 241.718C79.2305 240.847 78.8722 240.335 78.0017 240.181ZM76.6202 236.571C76.2234 236.276 75.9096 236.782 75.6788 238.087C75.4095 239.611 75.531 240.193 76.0431 239.835C76.9521 239.771 77.4835 239.304 77.6374 238.434C77.7913 237.563 77.4522 236.942 76.6202 236.571ZM156.271 244.929C155.4 244.775 154.888 245.133 154.734 246.004C154.542 247.092 154.881 247.713 155.752 247.867C156.187 247.944 156.501 247.438 156.693 246.35C156.847 245.479 156.706 245.006 156.271 244.929ZM159.517 241.8C158.647 241.646 158.115 242.113 157.923 243.201C157.692 244.507 158.012 245.236 158.882 245.39C159.97 245.583 160.63 245.026 160.861 243.72C161.053 242.632 160.605 241.992 159.517 241.8ZM68.3475 224.336C67.477 224.182 66.9456 224.649 66.7532 225.737C66.5224 227.043 66.8422 227.773 67.7127 227.927C68.5832 228.081 69.1338 227.505 69.3647 226.199C69.557 225.111 69.218 224.49 68.3475 224.336ZM153.872 239.455C153.437 239.378 153.162 239.666 153.046 240.319C152.931 240.972 153.129 241.119 153.641 240.761C154.294 240.876 154.371 240.441 153.872 239.455ZM157.887 235.789C157.528 235.276 157.292 235.347 157.176 236C157.061 236.653 157.221 237.017 157.656 237.094C157.912 236.915 158.059 236.717 158.098 236.499C158.175 236.064 158.104 235.827 157.887 235.789ZM152.99 234.923L154.622 235.212L154.911 233.579L153.279 233.291L152.99 234.923ZM72.5549 217.674C72.6318 217.239 72.4527 216.983 72.0174 216.906C71.5822 216.829 71.3261 217.008 71.2492 217.443C71.0953 218.314 71.5305 218.391 72.5549 217.674ZM74.4196 210.934C74.3426 211.37 74.336 212.042 74.3998 212.951C74.4635 213.86 74.4569 214.532 74.38 214.967C74.5976 215.005 74.9944 215.3 75.5703 215.851C76.1847 216.184 76.7095 216.389 77.1447 216.466L77.4712 216.523C77.6888 216.562 77.9256 216.491 78.1817 216.312C78.4378 216.133 78.8027 215.973 79.2764 215.833C79.0973 215.576 78.9181 215.32 78.739 215.064C78.5983 214.591 78.3488 214.098 77.9905 213.585C77.6322 213.073 77.1459 212.651 76.5315 212.318L74.4196 210.934ZM83.1393 205.407C83.1009 205.624 83.075 206.405 83.0618 207.749C83.0871 208.876 83.1893 209.567 83.3684 209.823C83.2915 210.259 83.5025 210.969 84.0015 211.955C84.7565 212.762 85.2044 213.402 85.3451 213.876C85.5627 213.914 85.8699 214.081 86.2667 214.375C86.6634 214.67 87.0795 214.856 87.5147 214.932C87.5532 214.715 87.4636 214.587 87.246 214.548C87.2844 214.331 87.3421 214.004 87.4191 213.569C87.2399 213.313 87.1888 212.967 87.2658 212.532C87.1383 210.714 86.8443 209.203 86.3838 208C86.1794 206.617 85.0979 205.753 83.1393 205.407ZM173.62 215.342C172.967 215.227 172.544 215.713 172.352 216.801C172.198 217.672 172.448 218.165 173.101 218.28C173.753 218.396 174.157 218.018 174.311 217.148C174.503 216.06 174.273 215.458 173.62 215.342ZM163.136 211.806L166.727 212.441C166.33 212.146 166.042 211.871 165.863 211.615C165.645 211.576 165.537 211.557 165.537 211.557C165.575 211.339 165.486 211.211 165.268 211.173C165.05 211.134 164.961 211.006 164.999 210.789L164.462 210.02L164.078 210.289C163.822 210.468 163.585 210.539 163.367 210.5L163.136 211.806ZM172.603 213.479L173.908 213.71L174.139 212.405L172.834 212.174L172.603 213.479ZM172.393 207.046C172.829 207.123 173.43 206.893 174.199 206.356C175.005 205.601 175.467 204.897 175.582 204.244L176.024 203.649C176.332 201.908 175.961 200.832 174.911 200.422C174.117 199.833 172.85 199.385 171.109 199.077C171.071 199.295 171.141 199.531 171.32 199.787C171.282 200.005 171.243 200.223 171.205 200.44C171.422 200.479 171.512 200.607 171.474 200.824L172.97 203.782C172.894 204.217 172.49 204.595 171.76 204.915C171.248 205.273 170.883 205.433 170.666 205.394L172.393 207.046ZM115.483 186.213C115.29 187.302 115.738 187.942 116.826 188.134L117.153 188.192L118.132 188.365L118.9 187.828C119.412 187.469 119.688 187.181 119.726 186.964L119.189 186.195C118.83 185.683 118.671 185.318 118.709 185.101L117.73 184.928L117.403 184.87C116.93 185.011 116.437 185.26 115.924 185.618C115.668 185.797 115.521 185.996 115.483 186.213ZM79.2488 179.808L80.5546 180.039L81.0162 177.427L79.7105 177.197L79.2488 179.808ZM177.313 194.451C177.454 194.925 177.793 195.546 178.33 196.314C179.085 197.121 179.681 197.562 180.116 197.639C180.333 197.678 180.826 197.428 181.595 196.891C182.581 196.392 183.221 195.944 183.515 195.547L183.688 194.568L183.804 193.915C183.663 193.441 183.177 193.019 182.345 192.647C181.769 192.097 181.372 191.802 181.155 191.764L180.502 191.648L179.196 191.417L178.428 191.955C177.915 192.313 177.64 192.601 177.602 192.819L177.486 193.472L177.313 194.451ZM137.413 184.031C136.542 183.877 136.011 184.344 135.819 185.432C135.626 186.52 135.965 187.141 136.836 187.295C137.271 187.372 137.585 186.867 137.777 185.779C137.97 184.69 137.848 184.108 137.413 184.031ZM97.1121 164.451C96.8944 164.413 96.1965 165.187 95.0183 166.774C94.0961 168.182 93.4877 169.084 93.1932 169.481C93.1162 169.916 92.8343 170.876 92.3474 172.361C92.1166 173.667 91.9627 174.538 91.8857 174.973C92.5386 175.088 93.2107 175.095 93.902 174.993C94.6318 174.673 95.1825 174.097 95.554 173.265C95.8486 172.868 96.425 171.511 97.2835 169.194C98.3595 166.916 98.9552 165.45 99.0706 164.797L97.1121 164.451ZM100.375 170.751C99.9899 172.927 100.342 174.111 101.43 174.304L102.007 171.039L100.375 170.751ZM179.658 188.806C180.746 188.998 181.872 188.973 183.037 188.73C184.202 188.487 184.939 187.495 185.247 185.754L180.35 184.889L179.658 188.806ZM55.5004 161.808C55.2828 161.769 55.0459 161.84 54.7898 162.019C54.7898 162.019 54.681 162 54.4634 161.961L54.137 161.904C53.9193 161.865 53.5352 162.134 52.9846 162.71C52.6515 163.324 52.4465 163.849 52.3696 164.284C52.5487 164.54 52.7471 164.687 52.9648 164.726C53.1439 164.982 53.3423 165.129 53.5599 165.168L55.3075 164.803C55.7427 164.88 56.1076 164.721 56.4022 164.324C56.7352 163.709 56.921 163.293 56.9594 163.076L56.6907 162.692C56.4731 162.653 56.2555 162.615 56.0378 162.576C56.0763 162.359 55.9867 162.231 55.7691 162.192L55.5004 161.808ZM115.931 162.729C115.854 163.164 115.771 164.271 115.681 166.051C115.629 167.612 115.565 168.611 115.488 169.046C115.59 169.738 115.833 170.903 116.216 172.541C116.6 174.18 116.971 175.256 117.329 175.768L117.54 176.478C117.54 176.478 117.777 176.408 118.251 176.267C118.468 176.306 118.705 176.235 118.961 176.056C119.55 175.263 120.722 174.348 122.476 173.311C124.269 172.057 125.313 171.232 125.607 170.835C125.646 170.617 125.793 170.419 126.049 170.24C126.087 170.022 126.107 169.914 126.107 169.914C126.363 169.734 126.51 169.536 126.548 169.318C126.625 168.883 125.736 168.838 123.879 169.183C122.241 169.567 121.46 169.541 121.537 169.106C120.666 168.952 120.039 168.055 119.656 166.417C119.272 164.778 118.536 163.862 117.448 163.67L115.931 162.729ZM245.814 178.284C245.737 178.719 245.789 179.064 245.968 179.321L246.505 180.089C246.863 180.601 246.978 181.856 246.85 183.853C246.939 185.888 246.727 187.085 246.215 187.443C246.176 187.661 246.01 187.968 245.715 188.365C245.459 188.544 245.184 188.832 244.889 189.229C244.377 189.587 243.974 189.965 243.679 190.361C243.206 190.502 242.38 191.366 241.201 192.953C240.279 194.361 239.581 195.135 239.107 195.276C238.441 196.505 237.654 197.151 236.745 197.215C236.054 197.317 235.055 197.253 233.749 197.022L237.039 178.415L239.113 178.109C239.586 177.968 240.041 177.936 240.476 178.013C241.167 177.911 241.75 177.789 242.224 177.649L244.182 177.995L245.814 178.284ZM174.59 183.197L176.548 183.543L176.895 181.585L174.936 181.239L174.59 183.197ZM89.0848 166.062C89.1618 165.627 88.9826 165.37 88.5474 165.294C88.3297 165.255 88.1825 165.453 88.1055 165.889C88.1693 166.798 88.3099 167.271 88.5276 167.31C88.7452 167.348 88.9309 166.932 89.0848 166.062ZM158.73 177.7C159.165 177.777 159.856 177.675 160.804 177.394C162.007 176.933 162.667 176.377 162.782 175.724C162.821 175.506 162.661 175.141 162.303 174.629L162.034 174.245C162.111 173.81 161.733 173.406 160.901 173.035C160.325 172.484 159.929 172.19 159.711 172.151L158.73 177.7ZM191.546 182.492L194.062 181.59L191.777 181.186L191.546 182.492ZM178.683 171.466C178.21 171.606 177.659 172.182 177.031 173.193C176.442 173.987 176.109 174.601 176.032 175.036L175.859 176.016L175.744 176.669C175.961 176.707 176.525 176.694 177.434 176.631C178.599 176.388 179.22 176.049 179.297 175.614L180.776 174.865C181.109 174.251 181.557 172.983 182.121 171.063C182.941 168.964 183.389 167.697 183.466 167.262C183.543 166.826 184.152 165.924 185.291 164.555C186.687 163.006 187.532 162.033 187.827 161.636C189.902 157.515 192.105 153.304 194.436 149.003C196.985 144.741 199.515 140.587 202.025 136.543C202.281 136.364 202.429 136.165 202.467 135.948C202.583 135.295 202.788 134.77 203.082 134.373L204.081 132.53L204.716 128.939L205.178 126.328C204.896 125.38 204.801 124.017 204.891 122.237C205.019 120.24 205.122 119.024 205.199 118.589C205.276 118.154 205.007 117.77 204.393 117.437C204.035 116.924 203.638 116.63 203.203 116.553L205.684 102.516C205.466 102.478 205.159 102.311 204.763 102.017C203.969 101.428 203.463 101.114 203.246 101.075C202.887 100.563 202.491 100.269 202.055 100.192L200.75 99.961L199.596 106.49L196.331 105.912C195.896 105.836 195.096 105.919 193.931 106.161C192.766 106.404 191.908 106.814 191.357 107.39L187.862 108.118C187.427 108.041 186.14 107.702 184.003 107.099C182.083 106.535 180.975 106.452 180.681 106.849C180.463 106.81 180.098 106.97 179.586 107.328C179.33 107.508 179.093 107.578 178.875 107.539C178.402 107.68 178.325 108.115 178.645 108.845C179.003 109.357 179.144 109.831 179.067 110.266C178.631 110.189 178.158 110.33 177.646 110.688C177.172 110.829 176.826 110.88 176.609 110.842C176.25 110.329 175.642 109.324 174.785 107.826C173.928 106.328 173.064 105.502 172.194 105.348C171.758 105.271 171.451 105.105 171.272 104.849C170.837 104.772 170.51 104.714 170.293 104.676C170.331 104.458 170.133 104.311 169.698 104.234C169.262 104.157 168.808 104.189 168.334 104.329C167.899 104.252 167.464 104.176 167.028 104.099C166.337 104.201 165.774 104.213 165.339 104.137L164.57 104.674C164.314 104.853 163.969 104.904 163.533 104.827C163.021 105.186 162.195 106.049 161.055 107.419C160.133 108.827 159.614 109.857 159.499 110.51C159.243 110.689 158.743 111.611 158 113.275C157.513 114.76 157.231 115.72 157.155 116.155L154.734 118.42C153.377 119.751 152.602 120.961 152.41 122.049C152.333 122.484 152.051 123.444 151.564 124.929C151.115 126.196 150.52 127.662 149.777 129.326C149.29 130.811 148.694 132.276 147.99 133.723C147.541 134.99 147.189 135.713 146.933 135.892C146.894 136.11 146.228 137.339 144.935 139.579C143.679 141.601 143.032 142.721 142.994 142.939C142.661 143.553 142.213 144.82 141.649 146.74C141.302 148.699 140.892 149.749 140.419 149.889C140.342 150.325 139.605 151.316 138.21 152.865C137.031 154.452 136.186 155.425 135.674 155.783C135.597 156.218 135.277 157.396 134.713 159.316C134.366 161.275 134.116 162.689 133.963 163.56L149.631 166.33C149.849 166.368 150.738 166.413 152.3 166.465C153.862 166.517 155.424 166.568 156.986 166.62C158.804 166.492 160.494 166.455 162.055 166.506C163.617 166.558 164.616 166.622 165.051 166.699L168.968 167.392L172.559 168.026C172.994 168.103 173.916 168.603 175.324 169.525C176.77 170.23 177.89 170.876 178.683 171.466ZM206.89 179.482C206.237 179.366 205.834 179.744 205.68 180.614C205.526 181.485 205.775 181.978 206.428 182.093C206.864 182.17 207.158 181.773 207.312 180.903C207.466 180.032 207.325 179.559 206.89 179.482ZM214.591 177.813C214.156 177.736 213.592 177.749 212.901 177.851C212.21 177.953 211.717 178.203 211.422 178.6L211.134 180.232L210.96 181.211C211.178 181.25 211.671 181 212.439 180.463C213.246 179.708 213.886 179.26 214.36 179.119L214.533 178.14L214.591 177.813ZM242.624 186.809C242.701 186.373 242.413 186.098 241.76 185.983C241.107 185.867 240.743 186.027 240.666 186.462C241.024 186.975 241.421 187.269 241.856 187.346C242.291 187.423 242.547 187.244 242.624 186.809ZM110.593 162.458L111.899 162.689L112.187 161.057L110.593 162.458ZM121.156 157.929C121.002 158.8 121.194 159.619 121.731 160.388C122.486 161.194 123.408 161.694 124.496 161.886C124.881 159.71 123.767 158.391 121.156 157.929ZM186.577 166.802C186.539 167.019 186.423 167.672 186.231 168.76C186.295 169.669 186.307 170.232 186.269 170.45C186.192 170.885 186.313 171.468 186.633 172.198C186.991 172.71 187.279 172.985 187.497 173.024C187.536 172.806 187.702 172.499 187.997 172.102C188.253 171.923 188.4 171.724 188.438 171.507C188.477 171.289 188.624 171.091 188.88 170.912C188.919 170.694 189.233 170.189 189.822 169.395C190.667 168.422 191.109 167.827 191.147 167.61L186.577 166.802ZM203.896 173.566C203.819 174.001 203.941 174.584 204.26 175.314C204.619 175.826 205.233 176.159 206.104 176.313C206.321 176.351 207.121 176.268 208.504 176.064C209.925 175.642 211.109 175.29 212.057 175.009C212.531 174.868 213.132 174.638 213.862 174.318C214.848 173.819 215.379 173.352 215.456 172.917L216.207 168.673L217.13 163.45C216.912 163.412 216.714 163.265 216.535 163.008L215.882 162.893C215.664 162.855 215.575 162.727 215.613 162.509C215.434 162.253 214.948 161.83 214.154 161.241C213.361 160.652 212.855 160.338 212.637 160.3C212.445 161.388 211.766 162.053 210.601 162.296C210.524 162.731 210.3 163.365 209.929 164.197C209.557 165.029 209.166 165.97 208.756 167.02C208.346 168.069 207.956 169.01 207.584 169.842C207.213 170.674 207.008 171.199 206.969 171.416C206.06 171.48 205.311 171.909 204.722 172.702C204.428 173.099 204.152 173.387 203.896 173.566ZM192.779 167.898L193.317 168.666C193.496 168.922 193.694 169.07 193.912 169.108C194.347 169.185 194.802 169.153 195.275 169.013C195.532 168.833 195.896 168.674 196.37 168.533L197.293 163.31L198.888 161.909L199.292 159.624L199.926 156.033C197.878 157.466 196.245 159.085 195.028 160.89C194.029 162.733 193.356 164.634 193.01 166.592L192.779 167.898ZM114.38 148.652C113.727 148.537 113.305 149.023 113.112 150.112C112.92 151.2 113.15 151.801 113.803 151.917C114.456 152.032 114.879 151.546 115.071 150.458C115.263 149.37 115.033 148.768 114.38 148.652ZM126.153 142.991C126.23 142.556 125.942 142.281 125.289 142.165C124.636 142.05 124.489 142.248 124.847 142.76C124.77 143.196 124.841 143.432 125.058 143.471C125.494 143.548 125.859 143.388 126.153 142.991ZM211.871 155.115C210.846 155.831 210.238 156.734 210.046 157.822L211.351 158.053L211.871 155.115ZM125.655 138.19C125.54 138.843 125.553 139.406 125.693 139.88C126.052 140.392 126.378 140.45 126.673 140.053L131.435 137.866C131.295 137.392 130.7 136.95 129.65 136.54C128.639 135.913 127.896 135.669 127.423 135.81C127.205 135.771 126.821 136.04 126.27 136.616C125.937 137.23 125.732 137.755 125.655 138.19ZM123.334 130.374C122.899 130.297 122.643 130.476 122.566 130.912C122.489 131.347 122.668 131.603 123.103 131.68C124.998 131.117 125.075 130.682 123.334 130.374ZM128.231 131.24L128.865 127.649L127.56 127.418L128.231 131.24ZM130.864 123.963C130.211 123.847 129.788 124.334 129.596 125.422C129.403 126.51 129.634 127.112 130.286 127.227C130.939 127.342 131.362 126.856 131.554 125.768C131.747 124.68 131.516 124.078 130.864 123.963ZM131.441 120.698C130.788 120.583 130.365 121.069 130.173 122.157C129.98 123.245 130.211 123.847 130.864 123.963C131.516 124.078 131.939 123.592 132.131 122.504C132.324 121.416 132.093 120.814 131.441 120.698ZM216.141 130.959C215.706 130.882 215.373 131.496 215.142 132.802C214.95 133.89 215.071 134.473 215.506 134.55C216.377 134.704 216.908 134.236 217.101 133.148C217.331 131.843 217.012 131.113 216.141 130.959ZM132.71 113.517C133.837 113.492 134.573 112.5 134.919 110.541L133.287 110.253L132.71 113.517ZM223.056 126.122C222.979 126.557 222.972 127.229 223.036 128.138C223.356 128.868 223.931 129.419 224.764 129.79L226.358 128.389C225.897 127.185 224.797 126.43 223.056 126.122ZM130.678 104.068C130.562 104.721 130.812 105.214 131.426 105.547C131.388 105.765 131.439 106.111 131.579 106.584C131.938 107.097 132.226 107.372 132.443 107.41C132.878 107.487 133.461 107.366 134.191 107.046C134.921 106.726 135.305 106.457 135.343 106.24C135.318 105.113 134.761 104.454 133.673 104.261C132.841 103.89 131.881 103.608 130.793 103.416L130.678 104.068ZM62.0893 90.2603C61.4364 90.1448 61.033 90.5224 60.8791 91.3929C60.7253 92.2633 60.9748 92.7563 61.6276 92.8717C62.7157 93.064 63.3367 92.725 63.4906 91.8545C63.6445 90.984 63.1774 90.4526 62.0893 90.2603ZM78.7966 87.1544C78.6043 88.2425 78.4823 89.5675 78.4306 91.1293C78.5965 92.7296 79.4412 93.6644 80.9645 93.9337L82.0609 87.7315L78.7966 87.1544ZM223.923 115.503C223.488 115.426 223.212 115.714 223.097 116.367C223.02 116.802 223.238 116.841 223.75 116.482C224.185 116.559 224.422 116.489 224.46 116.271C224.499 116.054 224.32 115.798 223.923 115.503ZM252.654 103.414C253.089 103.491 254.088 103.555 255.649 103.607C257.211 103.658 258.357 103.524 259.087 103.205C259.305 103.243 260.252 102.962 261.929 102.36C263.862 101.58 264.938 101.209 265.156 101.248C265.629 101.107 267.044 101.357 269.399 101.998C272.011 102.46 273.643 102.748 274.296 102.863C274.987 102.761 275.915 102.589 277.08 102.346C278.245 102.103 279.045 102.02 279.481 102.097C279.519 101.879 279.724 101.354 280.096 100.522C280.685 99.7289 280.998 99.2234 281.037 99.0057L285.933 99.8713L289.524 100.506C291.047 100.775 291.694 101.563 291.463 102.869C291.821 103.381 292.051 103.983 292.154 104.674C292.256 105.365 292.288 105.82 292.249 106.037C292.467 106.076 292.864 106.37 293.44 106.921C294.272 107.293 294.886 107.626 295.283 107.92L295.687 105.635L296.033 103.677C296.11 103.241 295.969 102.768 295.611 102.255C295.253 101.743 294.856 101.449 294.421 101.372C295.227 100.617 296.431 100.156 298.031 99.9902C299.849 99.8627 301.411 99.9144 302.717 100.145L304.349 100.434L305.424 101.97C305.782 102.482 306.012 103.084 306.114 103.776C306.255 104.249 306.505 104.742 306.863 105.254C307.183 105.984 307.522 106.605 307.88 107.117C307.803 107.553 307.668 108.314 307.476 109.402C307.284 110.491 307.072 111.687 306.841 112.993C306.649 114.081 306.457 115.169 306.264 116.257C306.072 117.346 305.956 117.998 305.918 118.216L306.551 120.348C306.513 120.565 306.474 120.783 306.436 121.001C306.615 121.257 306.666 121.602 306.589 122.038L306.416 123.017C306.198 122.978 305.328 122.825 303.804 122.555C302.499 122.324 301.884 121.991 301.961 121.556C301.744 121.518 301.257 121.095 300.502 120.288C299.965 119.52 299.587 119.117 299.37 119.078C299.113 119.257 298.838 119.545 298.544 119.942C298.288 120.121 297.903 120.39 297.391 120.748C296.841 121.324 296.309 121.791 295.797 122.15C295.285 122.508 294.357 122.68 293.012 122.667C291.707 122.436 290.727 122.263 290.075 122.148C290.113 121.93 290.337 121.297 290.747 120.247C291.196 118.98 291.458 118.128 291.535 117.693C291.83 117.296 292.252 116.81 292.803 116.234C293.098 115.837 293.373 115.549 293.629 115.37C293.924 114.974 294.09 114.666 294.129 114.449C294.244 113.796 293.924 113.066 293.169 112.259C292.414 111.453 291.857 110.793 291.499 110.281L287.908 109.646L285.623 109.242C285.188 109.165 284.785 109.543 284.413 110.375C284.042 111.207 283.798 111.949 283.683 112.602C283.171 112.96 282.383 113.607 281.32 114.541C280.514 115.296 279.893 115.635 279.457 115.558C279.303 116.429 278.964 117.715 278.438 119.418C277.952 120.902 277.433 121.933 276.882 122.509C276.664 122.47 276.428 122.541 276.172 122.72C275.915 122.899 275.749 123.206 275.672 123.641C275.237 123.564 274.782 123.596 274.309 123.737C273.873 123.66 273.438 123.583 273.003 123.506L271.371 123.218L272.467 117.015C272.032 116.938 271.616 116.753 271.219 116.458C270.784 116.381 270.349 116.304 269.913 116.227C269.517 115.933 269.101 115.747 268.665 115.67C268.627 115.888 268.352 116.176 267.839 116.534C267.583 116.713 267.436 116.911 267.398 117.129L269.374 121.181C268.427 121.463 267.678 121.891 267.127 122.467C266.794 123.082 266.48 123.587 266.186 123.984C265.315 123.83 263.593 123.414 261.021 122.734C258.665 122.094 257.289 121.626 256.892 121.331L256.086 120.179C255.728 119.667 255.811 118.559 256.337 116.857C256.862 115.154 257.163 114.086 257.24 113.65C256.805 113.573 256.248 112.914 255.57 111.672C255.148 110.251 254.739 109.393 254.342 109.098C253.984 108.586 253.555 107.837 253.056 106.851C252.775 105.904 252.564 105.193 252.423 104.72L252.654 103.414ZM136.613 99.0583L137.15 99.8266C137.329 100.083 137.636 100.249 138.072 100.326C138.507 100.403 138.853 100.352 139.109 100.173L139.877 99.6354C139.915 99.4178 140.14 98.7842 140.55 97.7345C140.96 96.6849 141.261 95.616 141.453 94.5279C141.902 93.2607 142.203 92.1918 142.357 91.3213C142.767 90.2717 142.991 89.6381 143.029 89.4205C141.864 89.6633 140.526 90.8855 139.015 93.087C137.76 95.1093 137.017 96.7733 136.786 98.079L136.613 99.0583ZM124.517 93.2171C123.646 93.0632 122.916 93.383 122.327 94.1765C121.956 95.0085 121.712 95.751 121.597 96.4038C123.12 96.6731 124.612 96.488 126.071 95.8483C126.341 94.325 126.149 93.5056 125.496 93.3902L124.517 93.2171ZM131.063 98.0773L132.696 98.3659L132.926 97.0601L131.294 96.7716L131.063 98.0773ZM87.3613 86.3121C87.7196 86.8243 87.9499 87.426 88.0521 88.1173C88.4104 88.6295 89.1336 88.9818 90.2217 89.1741C90.5295 87.4332 89.9794 86.1016 88.5715 85.1795L87.3613 86.3121ZM240.648 116.103L242.28 116.392L242.684 114.107L241.052 113.818L240.648 116.103ZM169.431 98.1273C169.354 98.5625 169.475 99.145 169.795 99.8748C170.115 100.605 170.473 101.117 170.87 101.411C171.087 101.45 171.324 101.38 171.58 101.2C171.836 101.021 171.964 100.932 171.964 100.932C172.003 100.714 172.15 100.516 172.406 100.336L172.695 98.7043L173.041 96.7457C172.823 96.7073 172.625 96.56 172.446 96.3039L171.908 95.5356C171.473 95.4587 171 95.5994 170.487 95.9577C170.231 96.1368 169.994 96.2072 169.777 96.1687L169.488 97.8008L169.431 98.1273ZM229.532 110.435C228.879 110.32 228.437 110.915 228.206 112.221C228.014 113.309 228.244 113.91 228.897 114.026C229.55 114.141 229.972 113.655 230.165 112.567C230.395 111.261 230.184 110.551 229.532 110.435ZM134.369 88.8994C133.499 88.7455 132.967 89.2126 132.775 90.3007C132.621 91.1712 132.979 91.6834 133.85 91.8373C134.503 91.9527 134.906 91.5751 135.06 90.7047C135.252 89.6166 135.022 89.0148 134.369 88.8994ZM199.446 94.0077C199.215 95.3134 199.656 96.6257 200.77 97.9447C201.653 96.7544 202.191 95.6151 202.384 94.527L199.446 94.0077ZM257.224 104.222C256.136 104.029 255.476 104.586 255.246 105.892C255.053 106.98 255.501 107.62 256.589 107.812C257.46 107.966 257.991 107.499 258.183 106.411C258.414 105.105 258.094 104.376 257.224 104.222ZM153.612 82.8755C152.959 82.7601 152.537 83.2464 152.344 84.3345C152.19 85.205 152.44 85.6979 153.093 85.8134C153.963 85.9672 154.475 85.6089 154.629 84.7385C154.822 83.6504 154.483 83.0294 153.612 82.8755ZM160.719 75.0429C160.284 74.9659 159.99 75.3627 159.836 76.2332C159.682 77.1037 159.823 77.5774 160.258 77.6543C161.346 77.8467 161.967 77.5076 162.121 76.6371C162.275 75.7667 161.808 75.2352 160.719 75.0429ZM163.832 68.8605L165.464 69.149L165.695 67.8433L164.063 67.5548L163.832 68.8605ZM232.422 76.9463C231.039 77.1507 230.233 77.9058 230.002 79.2115L231.96 79.5578L232.422 76.9463ZM247.247 76.874C246.594 76.7586 245.685 76.8223 244.52 77.0652C243.355 77.3081 242.676 77.9735 242.484 79.0616L242.695 79.7722C242.912 79.8107 243.584 79.8173 244.711 79.792C246.094 79.5876 246.894 79.5046 247.111 79.5431C247.329 79.5816 247.713 79.3129 248.264 78.7369C248.52 78.5578 248.795 78.2698 249.09 77.8731C248.655 77.7961 248.347 77.6296 248.168 77.3735C247.951 77.335 247.643 77.1685 247.247 76.874ZM247.827 62.1648C247.904 61.7295 247.507 61.435 246.637 61.2811C245.984 61.1657 245.728 61.3448 245.869 61.8185C245.561 63.5595 246.214 63.6749 247.827 62.1648ZM257.872 54.8515C257.22 54.7361 256.797 55.2225 256.605 56.3106C256.451 57.1811 256.7 57.674 257.353 57.7894C257.788 57.8664 258.083 57.4696 258.237 56.5991C258.429 55.511 258.308 54.9285 257.872 54.8515ZM184.178 33.7447L184.505 33.8024L184.831 33.8601C186.137 34.091 186.886 33.6623 187.078 32.5742L185.351 30.9223L184.178 33.7447Z" fill="#FFDC47"/>
</svg>
