<svg width="140" height="283" viewBox="0 0 140 283" fill="none" xmlns="http://www.w3.org/2000/svg">
<path d="M36.8267 273.032C36.6063 273.016 36.2597 273.212 35.7868 273.621C35.5504 273.826 35.2118 273.912 34.7709 273.88C34.5505 273.864 34.4403 273.856 34.4403 273.856C34.4243 274.076 34.3061 274.178 34.0857 274.162L33.7551 274.138C33.8832 272.375 33.6326 271.249 33.0034 270.76C32.5946 270.287 32.4303 269.5 32.5104 268.398C32.9512 268.43 33.6204 268.368 34.5181 268.211C35.6362 268.071 36.1251 267.442 35.9847 266.324C34.57 264.448 33.2494 262.801 32.023 261.383C31.001 260.2 29.8688 259.01 28.6264 257.812C27.5884 256.85 26.849 256.354 26.4082 256.321L26.0776 256.297C25.6207 256.486 25.0377 256.887 24.3284 257.5C23.6191 258.113 23.2564 258.53 23.2404 258.75C22.4869 256.923 21.4508 254.41 20.1321 251.212C18.7974 248.235 18.1 245.636 18.0397 243.416C18.1678 241.653 19.0114 240.717 20.5703 240.608C22.1292 240.5 23.1691 239.911 23.69 238.841C26.1664 235.254 28.6348 231.777 31.0952 228.411C33.792 224.84 37.3846 222.664 41.8729 221.882C42.0933 221.898 42.44 221.702 42.9128 221.293C43.6061 220.9 44.0549 220.822 44.2593 221.058C44.7002 221.09 45.125 221.343 45.5338 221.816C46.179 222.084 46.4856 222.439 46.4536 222.88C46.4856 222.439 46.6358 221.896 46.9043 221.251C47.1888 220.385 47.347 219.732 47.3791 219.291L48.0403 219.339C49.3628 219.435 50.2746 220.609 50.7756 222.861C51.5132 224.909 52.1244 227.169 52.6095 229.642C53.0946 232.115 53.5796 234.587 54.0647 237.06C54.5658 239.312 55.2491 240.58 56.1148 240.865C55.8021 239.069 56.323 237.999 57.6775 237.655C58.4951 238.6 58.8558 239.734 58.7597 241.057C58.9161 241.955 58.7498 242.718 58.2609 243.347C57.7561 244.197 57.4636 245.173 57.3835 246.275L57.3595 246.605C57.5478 247.062 57.8544 247.417 58.2793 247.669C58.9085 248.158 59.4355 248.529 59.8603 248.781C59.8443 249.002 60.1669 249.136 60.8281 249.184C60.716 250.727 60.8483 251.955 61.2251 252.869C61.5858 254.003 61.8284 255.239 61.9527 256.578C61.7124 259.884 59.813 261.629 56.2544 261.814C54.0502 261.654 52.6736 260.778 52.1245 259.187C51.4312 259.58 50.6979 260.524 49.9245 262.019C49.3556 263.75 48.7866 265.481 48.2177 267.212C47.6487 268.944 47.0958 270.455 46.5589 271.745C46.0059 273.256 45.509 273.995 45.0682 273.963C44.6274 273.931 44.1946 273.789 43.7698 273.537C43.3289 273.505 43.0063 273.37 42.8019 273.134L42.1407 273.086C40.3774 272.958 39.3455 273.437 39.045 274.523C38.7285 275.829 38.0192 276.442 36.9171 276.362L36.8267 273.032ZM38.521 258.863C38.5813 261.084 38.7677 263.091 39.0804 264.887C39.3931 266.682 39.5716 268.8 39.6158 271.241C40.9383 271.337 41.9862 270.637 42.7596 269.142C43.5329 267.648 43.9356 266.68 43.9677 266.239C43.118 265.734 42.607 265.143 42.4347 264.466C42.2623 263.788 41.9877 262.993 41.611 262.079C41.4546 261.182 41.1881 260.276 40.8113 259.362C40.4185 258.669 39.6871 258.062 38.6171 257.541L38.521 258.863ZM45.2421 266.996C44.5648 267.169 44.1942 267.696 44.1301 268.577C44.2865 269.475 44.7033 269.838 45.3805 269.665C45.8213 269.697 45.9636 269.264 45.8072 268.367C45.8713 267.485 45.6829 267.028 45.2421 266.996ZM35.3532 261.292L35.1187 259.946L33.7962 259.85L35.3532 261.292ZM46.8403 254.15C45.7382 254.07 44.7303 254.218 43.8166 254.595C43.1234 254.988 42.8389 255.854 42.9632 257.192C45.6402 256.943 46.9325 255.929 46.8403 254.15ZM52.5626 248.583L55.5382 248.8L53.6265 247.664L52.5626 248.583ZM44.5614 244.346L45.9079 244.111L44.6575 243.023L44.5614 244.346ZM30.8012 237.031C30.3924 236.558 30.1479 236.873 30.0679 237.975C29.9878 239.077 30.1842 239.424 30.657 239.015C31.1139 238.826 31.3663 238.402 31.4144 237.74C31.4464 237.3 31.242 237.063 30.8012 237.031ZM32.1774 231.813L33.572 230.917L32.3456 229.499L32.1774 231.813ZM51.5135 198.985C51.7339 199.001 52.1748 199.033 52.836 199.081C53.5132 198.908 54.0803 198.728 54.5371 198.54C54.978 198.572 55.6392 198.62 56.5209 198.684C57.6229 198.764 58.3543 199.371 58.7151 200.505C58.2422 200.914 57.6351 201.645 56.8938 202.699C56.3889 203.549 55.6796 204.162 54.7659 204.539C54.1207 204.27 53.5155 203.451 52.9504 202.08C52.4013 200.489 51.9223 199.457 51.5135 198.985ZM40.1397 190.846C39.9193 190.83 39.4625 191.018 38.7692 191.411C38.3123 191.6 37.9737 191.686 37.7533 191.67C37.0921 191.622 36.5731 191.141 36.1963 190.227C36.056 189.109 35.9156 187.991 35.7753 186.873C35.8714 185.55 35.9595 184.338 36.0396 183.236C36.1196 182.134 36.1677 181.473 36.1837 181.252C35.0656 181.393 34.1439 181.88 33.4186 182.713C32.9137 183.563 32.1103 183.948 31.0082 183.868L31.3502 174.586C31.1298 174.57 30.9174 174.444 30.713 174.208C30.4926 174.192 30.2802 174.065 30.0758 173.829C30.0598 174.049 29.8074 174.474 29.3185 175.103C29.05 175.749 28.9078 176.181 28.8918 176.402L28.2305 176.354C27.7897 176.322 27.2627 175.951 26.6495 175.242C26.2567 174.549 25.8719 173.745 25.4952 172.831C25.3548 171.713 25.0963 170.697 24.7195 169.784C24.5632 168.886 24.493 168.327 24.509 168.107C24.3207 167.65 23.8417 166.618 23.0722 165.011C22.523 163.42 21.8717 161.711 21.1182 159.883C20.3646 158.056 19.6031 156.339 18.8336 154.732C18.2844 153.141 18.0259 152.125 18.0579 151.684C18.0579 151.684 17.9798 151.235 17.8234 150.338C17.9035 149.236 17.8814 148.015 17.757 146.677C17.6327 145.338 17.5084 144 17.3841 142.661C17.2758 141.103 17.1435 139.874 16.9871 138.977L17.1072 137.323C17.5038 134.915 18.0026 132.625 18.6036 130.453C19.1726 128.721 19.6233 127.092 19.9558 125.565C20.3044 123.818 20.6049 122.732 20.8573 122.307C20.8733 122.087 21.4083 122.347 22.4624 123.088C23.5324 123.609 24.1776 123.878 24.398 123.894L25.0593 123.942L25.7205 123.99L26.3337 124.699L26.6403 125.054C26.6243 125.274 26.3718 125.699 25.883 126.328C25.6305 126.753 25.4963 127.076 25.4803 127.296C25.4643 127.517 25.4402 127.847 25.4082 128.288C25.6126 128.524 25.6988 128.863 25.6667 129.304C25.5546 130.847 25.711 131.744 26.1358 131.997C26.797 132.045 27.6787 132.109 28.7808 132.189C28.8608 131.087 28.7125 130.079 28.3357 129.165C27.959 128.252 27.6844 127.456 27.512 126.779C27.5761 125.897 27.8446 125.252 28.3174 124.843C28.8063 124.214 29.8462 123.625 31.4371 123.076C33.0121 122.747 33.7595 123.134 33.6794 124.236C34.044 122.268 34.8955 121.222 36.234 121.098C37.5725 120.974 39.0132 120.967 40.5561 121.08C40.7323 118.655 40.3414 116.411 39.3835 114.347C38.4255 112.283 36.6401 110.935 34.0272 110.302C33.0815 111.119 32.5365 112.52 32.3924 114.504C32.4687 116.504 32.4748 117.944 32.4107 118.826C31.7495 118.778 30.7416 118.926 29.3871 119.271C28.269 119.411 27.2691 119.449 26.3875 119.385C25.5058 119.321 24.8606 119.053 24.4518 118.58C24.2794 117.903 24.8083 116.722 26.0385 115.039C27.361 115.135 28.2587 114.979 28.7315 114.57C29.2044 114.161 29.4568 113.737 29.4889 113.296C29.7573 112.65 29.9156 111.997 29.9636 111.336C30.0117 110.675 30.2882 109.919 30.7931 109.07C31.0455 108.645 31.873 107.93 33.2756 106.924C34.9145 105.713 36.6637 104.511 38.5231 103.316C40.603 102.138 42.4544 101.054 44.0773 100.064C45.7163 98.8537 46.7722 98.0441 47.2451 97.6353C47.4975 97.2105 47.8522 96.9039 48.309 96.7155C48.7659 96.5271 49.2307 96.2285 49.7036 95.8197L50.0582 95.5132C51.3967 95.3888 52.4187 96.571 53.1242 99.0596C54.0501 101.564 54.8196 103.171 55.4328 103.88C55.6372 104.117 55.8656 104.023 56.1181 103.598C56.5909 103.189 56.9376 102.993 57.158 103.009C57.0497 101.45 56.705 100.095 56.1238 98.9452C55.5426 97.7951 55.1979 96.4406 55.0896 94.8817C56.6325 94.9938 57.5542 94.5068 57.8547 93.4207C58.1552 92.3347 58.6761 91.2647 59.4174 90.2106C59.4655 89.5494 59.7579 88.5736 60.2949 87.2831C60.8318 85.9927 61.2105 85.3554 61.4309 85.3715L62.0921 85.4195C62.0441 86.0807 62.0822 87.0806 62.2065 88.4191C62.5673 89.5532 63.2987 90.1603 64.4007 90.2404L64.7313 90.2644C65.8372 87.2427 67.2577 84.4654 68.9928 81.9326C70.7439 79.1793 73.014 76.9069 75.8031 75.1154L76.1337 75.1394C76.795 75.1874 77.4242 75.6763 78.0213 76.606C78.8389 77.5517 79.5303 78.7099 80.0954 80.0804C80.6766 81.2305 81.2658 82.2704 81.8629 83.2001C82.4601 84.1298 83.0893 84.6187 83.7506 84.6667C83.971 84.6827 84.3256 84.3761 84.8145 83.7469C85.5398 82.9133 86.1629 81.9615 86.6838 80.8915C87.4251 79.8375 88.0482 78.8856 88.5531 78.036C89.058 77.1864 89.3265 76.5412 89.3585 76.1004L89.4066 75.4391C89.8634 75.2507 90.3283 74.9521 90.8011 74.5433C91.274 74.1345 91.6286 73.828 91.8651 73.6236L91.9371 72.6317C92.0172 71.5296 91.5222 70.7181 90.4522 70.1972C89.6026 69.6923 89.1236 68.6604 89.0153 67.1015C90.5582 67.2136 91.3056 67.6003 91.2576 68.2616C91.4299 68.9388 92.3978 69.3415 94.1611 69.4696C94.2412 68.3676 94.5256 67.5019 95.0145 66.8727C95.5194 66.0231 96.0243 65.1735 96.5292 64.3239C97.2545 63.4903 97.8696 62.6486 98.3745 61.799C98.8954 60.729 99.2199 59.3123 99.348 57.549C99.2397 55.9901 99.1234 54.5414 98.9991 53.2029C98.8748 51.8644 97.8368 50.9027 95.8851 50.3177C95.8531 50.7585 95.4824 51.2855 94.7731 51.8987C94.3003 52.3075 93.8354 52.6061 93.3786 52.7945C93.3625 53.0149 93.0399 52.8807 92.4107 52.3918C92.0179 51.6985 91.7114 51.3439 91.4909 51.3279L90.8297 51.2798L90.1685 51.2318C89.948 51.2158 89.4832 51.5143 88.7739 52.1275C88.3011 52.5363 87.9544 52.7327 87.734 52.7167C86.8523 52.6526 86.4436 52.1798 86.5076 51.2981C86.9645 51.1098 87.4293 50.8112 87.9022 50.4024C88.375 49.9936 88.7297 49.687 88.9661 49.4826C88.9821 49.2622 88.8879 49.0337 88.6835 48.7973C88.6995 48.5769 88.7156 48.3565 88.7316 48.1361L88.401 48.1121C88.1805 48.096 87.9681 47.9698 87.7637 47.7334C87.7477 47.9538 87.3931 48.2604 86.6998 48.6532C86.243 48.8416 85.8963 49.0379 85.6599 49.2423C84.75 46.5173 83.2952 45.1929 81.2955 45.2692C79.5322 45.1411 77.5645 44.7765 75.3924 44.1755C75.3924 44.1755 75.3683 44.5061 75.3203 45.1674C75.4927 45.8446 75.5468 46.6241 75.4827 47.5057C75.4347 48.167 75.1662 48.8122 74.6774 49.4414C74.4249 49.8662 73.8659 49.9364 73.0002 49.6519C72.5594 49.6199 72.0244 49.3594 71.3952 48.8706C70.782 48.1613 70.4914 47.5862 70.5234 47.1454L64.4465 53.0188L63.7852 52.9707L63.124 52.9227C62.9036 52.9066 62.6912 52.7804 62.4868 52.544C62.2824 52.3076 62.1882 52.0791 62.2042 51.8587C62.2042 51.8587 61.9918 51.7325 61.567 51.48C60.8897 51.6524 60.4088 52.1714 60.1244 53.0371C59.8559 53.6823 59.6977 54.3355 59.6496 54.9967C57.2251 54.8206 54.7605 55.1954 52.2558 56.1213C49.7672 56.8268 47.1924 57.1936 44.5315 57.2219C44.1989 58.7487 43.4736 59.5824 42.3556 59.7227C41.2535 59.6426 40.1434 59.6727 39.0253 59.8131C38.5845 59.781 37.9233 59.733 37.0416 59.6689C36.16 59.6049 35.6169 59.4546 35.4125 59.2182C35.2722 58.1001 34.8093 56.8478 34.0237 55.4612C33.2381 54.0747 32.4526 52.6882 31.667 51.3016C30.8815 49.9151 30.0799 48.7489 29.2623 47.8032C28.4607 46.6371 27.9738 45.7154 27.8014 45.0381C28.2422 45.0702 28.4947 44.6454 28.5587 43.7637C28.6388 42.6616 28.6869 42.0004 28.7029 41.78C28.3261 40.8663 27.5245 39.7002 26.2982 38.2816C25.3082 36.6586 24.208 35.0276 22.9977 33.3887C21.8033 31.5293 20.7112 29.7881 19.7212 28.1651C18.7473 26.3217 18.3084 24.7388 18.4044 23.4163C18.5326 21.653 18.9273 20.7953 19.5885 20.8434C20.4862 20.687 21.8247 20.5627 23.604 20.4705C25.3673 20.5986 26.776 21.0333 27.83 21.7746C29.1044 22.532 30.5131 22.9667 32.056 23.0788C32.104 22.4176 32.1681 21.5359 32.2482 20.4338C32.3443 19.1114 32.4323 17.8991 32.5124 16.797C32.6085 15.4745 32.7988 14.3805 33.0833 13.5148C33.3838 12.4288 33.7544 11.9018 34.1953 11.9338C35.7702 11.6051 36.9043 11.2443 37.5976 10.8516C38.2908 10.4588 38.6455 10.1522 38.6615 9.93178C38.9139 9.50696 39.0482 9.18435 39.0642 8.96394C39.0962 8.52311 39.4428 8.32672 40.1041 8.37477C41.2382 8.01403 42.5767 7.88972 44.1196 8.00183C45.6625 8.11394 47.1112 7.99763 48.4657 7.65289C49.6318 6.85133 50.4593 6.13593 50.9482 5.50671C51.4531 4.6571 52.2566 4.27233 53.3586 4.35241L54.0199 4.40046L50.2332 10.7726C52.6097 11.61 54.884 12.3292 57.0561 12.9302C59.4646 13.3268 61.8892 13.503 64.3297 13.4587C65.2114 13.5228 65.6682 13.3344 65.7003 12.8936C65.9527 12.4688 66.1029 11.9258 66.151 11.2645C66.199 10.6033 66.2471 9.94204 66.2951 9.2808C66.5636 8.63558 67.0365 8.22679 67.7137 8.05443C67.6977 8.27484 67.7679 8.83388 67.9242 9.73156C68.301 10.6452 68.7018 11.2283 69.1266 11.4807L69.4572 11.5048L70.1184 11.5528C70.3709 11.128 71.0882 10.4046 72.2703 9.38262C73.6889 8.15624 74.5244 7.33064 74.7769 6.90583C75.2337 6.71745 75.6905 6.52907 76.1474 6.34068C76.8407 5.94791 77.2975 5.75953 77.5179 5.77555C77.9748 5.58716 78.7302 5.86362 79.7842 6.60494C80.8382 7.34626 81.5696 7.95335 81.9784 8.42621L81.8823 9.7487C81.8022 10.8508 81.5098 11.8266 81.0049 12.6762C80.7204 13.5419 80.5381 14.5257 80.458 15.6278L80.41 16.289C80.6144 16.5255 80.8108 16.8721 80.9992 17.3289C81.2036 17.5654 81.416 17.6916 81.6364 17.7076C82.3617 16.874 82.7724 15.796 82.8685 14.4735C83.201 12.9466 83.4073 11.6321 83.4874 10.5301C83.8039 9.22359 84.2146 8.14555 84.7195 7.29593C85.2404 6.2259 86.0679 5.5105 87.202 5.14975L87.0281 12.1168L87.6413 12.8261C88.0341 13.5194 88.4669 13.6616 88.9398 13.2528C89.6811 12.1988 90.0677 11.4514 90.0998 11.0105C90.1478 10.3493 90.0616 10.0107 89.8412 9.99465C89.8573 9.77424 89.8653 9.66404 89.8653 9.66404C90.1017 9.45964 90.7709 9.39749 91.873 9.47757C92.9751 9.55765 94.3917 9.88216 96.123 10.4511C98.0747 11.0361 99.1047 12.108 99.213 13.6669L99.1649 14.3282C99.1489 14.5486 98.8965 14.9734 98.4076 15.6026C98.1392 16.2478 97.9969 16.6806 97.9809 16.9011L97.9328 17.5623C97.8848 18.2235 98.2936 18.6964 99.1592 18.9809C100.041 19.0449 100.812 19.101 101.474 19.149C102.355 19.2131 102.914 19.1429 103.151 18.9385C103.403 18.5137 103.97 18.3334 104.852 18.3974C105.293 18.4294 106.024 19.0365 107.046 20.2187C108.084 21.1804 109.216 22.3706 110.443 23.7892C111.669 25.2077 112.675 26.6103 113.461 27.9968C114.483 29.179 114.986 29.8803 114.97 30.1007C115.174 30.3371 115.543 31.361 116.076 33.1723C116.829 34.9997 117.284 36.3622 117.441 37.2599C117.565 38.5984 117.729 39.3859 117.934 39.6223C118.358 39.8747 118.791 40.017 119.232 40.049C119.673 40.081 120.114 40.1131 120.555 40.1451C121.216 40.1931 121.955 40.69 122.773 41.6358C125.43 44.7093 127.953 48.1055 130.342 51.8243C132.967 55.3387 133.678 59.2681 132.476 63.6123C133.186 62.9991 134.202 62.7405 135.524 62.8366C135.428 64.1591 135.238 65.2531 134.953 66.1188C134.905 66.78 134.755 67.323 134.502 67.7479C134.25 68.1727 133.998 68.5975 133.745 69.0223C133.713 69.4631 133.665 70.1244 133.601 71.006C133.537 71.8877 133.717 72.4547 134.142 72.7072C134.787 72.9756 135.094 73.3303 135.062 73.7711C134.966 75.0936 134.24 75.9272 132.886 76.2719C131.768 76.4122 130.846 76.8992 130.121 77.7328L129.742 78.37C129.726 78.5904 129.82 78.8189 130.025 79.0553C130.245 79.0713 130.442 79.418 130.614 80.0952C131.007 80.7885 131.195 81.2453 131.179 81.4657C130.642 82.7562 129.727 84.6838 128.432 87.2487C127.154 89.5932 125.633 90.7014 123.87 90.5732C122.768 90.4932 121.91 90.0985 121.297 89.3892C120.904 88.6959 120.512 88.0026 120.119 87.3094C119.962 86.4117 119.688 85.6162 119.295 84.923C118.918 84.0093 118.289 83.5204 117.407 83.4563C117.468 85.6765 117.686 87.2434 118.063 88.1571C118.44 89.0708 118.887 90.5435 119.404 92.5753C119.404 92.5753 119.175 92.6695 118.719 92.8578C117.176 92.7457 115.799 91.8702 114.589 90.2312C113.599 88.6082 112.577 87.4261 111.523 86.6847C111.082 86.6527 110.735 86.8491 110.483 87.2739C110.246 87.4783 110.01 87.6827 109.773 87.8871C109.757 88.1075 110.048 88.6826 110.645 89.6123C111.258 90.3216 111.864 91.1411 112.461 92.0708C113.278 93.0165 113.986 93.9542 114.583 94.8839C115.196 95.5932 115.495 96.058 115.479 96.2784C115.463 96.4989 114.761 97.0018 113.375 97.7874C112.225 98.3686 111.744 98.8876 111.932 99.3444L107.682 98.3708C107.602 99.4729 107.813 101.15 108.314 103.402C109.035 105.67 108.711 107.087 107.34 107.652C107.372 107.211 107.098 106.416 106.516 105.266C106.172 103.911 105.709 102.659 105.128 101.509C104.562 100.138 103.871 98.9802 103.054 98.0345C102.456 97.1048 102.048 96.632 101.827 96.6159C101.827 96.6159 101.881 97.3954 101.99 98.9543C102.114 100.293 102.112 101.844 101.984 103.607C101.856 105.37 101.287 107.102 100.277 108.801C99.5037 110.296 98.1011 111.302 96.0693 111.819C96.1014 111.378 96.0152 111.039 95.8108 110.803C95.8909 109.701 95.7826 108.142 95.4859 106.126C95.2052 103.89 95.3253 102.237 95.8462 101.167L95.8943 100.506L95.9183 100.175C95.9343 99.9546 95.7299 99.7181 95.3051 99.4657C95.1007 99.2292 94.8963 98.9928 94.6919 98.7564C93.7462 99.574 93.1071 100.746 92.7746 102.273C92.442 103.8 92.1015 105.437 91.753 107.184C91.4204 108.711 90.9857 110.12 90.4488 111.41C89.9279 112.48 89.0062 112.967 87.6837 112.871L87.3531 112.847C86.3311 111.665 85.4353 110.271 84.6658 108.664C83.9123 106.836 82.7641 105.866 81.2212 105.754C81.1251 107.077 81.4458 108.762 82.1833 110.81C83.1572 112.653 83.5801 114.456 83.452 116.22C83.404 116.881 82.7107 117.274 81.3722 117.398C80.2541 117.538 78.9076 117.773 77.3327 118.102C75.7738 118.21 74.3091 118.547 72.9385 119.112C71.7884 119.693 71.1493 120.865 71.0212 122.629C71.0974 124.628 71.7007 126.999 72.831 129.74C73.9773 132.26 74.4784 134.513 74.3342 136.496C74.3342 136.496 73.689 136.228 72.3986 135.691C71.7533 135.422 71.2263 135.052 70.8175 134.579C70.5971 134.563 70.3847 134.437 70.1803 134.2L69.5671 133.491L68.9059 133.443L68.2447 133.395C68.0242 133.379 67.6776 133.575 67.2047 133.984C66.9683 134.188 66.6297 134.275 66.1889 134.243C65.9684 134.227 65.6458 134.092 65.221 133.84C65.0326 133.383 64.8202 133.257 64.5838 133.461L62.528 134.309L60.5443 134.165C60.4482 135.487 60.9192 136.629 61.9572 137.591C63.2316 138.348 63.8047 139.609 63.6766 141.372L59.3248 146.374C58.1266 147.616 57.0467 148.756 56.0849 149.794C55.1232 150.832 54.5321 151.343 54.3117 151.327C53.8869 151.075 53.3759 150.484 52.7787 149.554C52.1816 148.624 51.7808 148.041 51.5764 147.805L51.6244 147.144L51.6725 146.482C52.1453 146.074 52.7364 145.563 53.4457 144.949C54.3914 144.132 54.8723 143.613 54.8883 143.392C56.2428 143.048 57.3289 143.348 58.1465 144.294L58.0561 140.964C57.1744 140.9 56.6154 140.97 56.379 141.174C56.1585 141.158 55.8119 141.355 55.339 141.763C55.1026 141.968 54.764 142.054 54.3232 142.022C52.7803 141.91 51.4818 141.483 50.4278 140.742C49.3738 140 48.1855 139.582 46.863 139.486C42.6592 139.402 40.6255 141.47 40.762 145.69C38.3215 145.734 35.8428 144.778 33.3259 142.823C30.8091 140.867 28.8814 139.952 27.5429 140.076C27.3225 140.06 27.2043 140.162 27.1883 140.383C27.1883 140.383 27.0781 140.375 26.8577 140.359L26.1964 140.31C25.96 140.515 25.6134 140.711 25.1565 140.9C24.9201 141.104 24.5815 141.19 24.1406 141.158L23.81 141.134L22.8902 140.07C22.8902 140.07 22.6698 140.054 22.229 140.022L21.8743 140.329C21.6539 140.313 21.3073 140.509 20.8344 140.918L20.4798 141.225L20.4924 150.199C21.374 150.263 22.0593 149.981 22.5482 149.352C23.0371 148.722 23.4157 148.085 23.6842 147.44C24.1731 146.811 24.6539 146.292 25.1268 145.883C25.6157 145.254 26.1907 144.963 26.852 145.011C27.7336 145.075 28.2606 145.446 28.433 146.123C28.6054 146.8 28.5493 147.572 28.2648 148.438C28.2008 149.319 28.1447 150.091 28.0966 150.752C28.269 151.429 28.796 151.8 29.6777 151.864C29.9141 151.659 30.2607 151.463 30.7176 151.275C31.6313 150.898 32.0881 150.71 32.0881 150.71L32.4187 150.734L33.08 150.782C32.5751 151.631 32.1964 152.268 31.944 152.693C31.9119 153.134 31.8559 153.906 31.7758 155.008C31.7438 155.448 31.7037 155.999 31.6557 156.661C31.828 157.338 32.2448 157.701 32.9061 157.749C33.7275 155.593 35.3524 153.052 37.7807 150.126C40.4455 146.996 42.7778 145.393 44.7775 145.317C45.6592 145.381 46.2884 145.87 46.6651 146.783C47.0419 147.697 47.2924 148.823 47.4168 150.162C47.5571 151.28 47.469 152.492 47.1525 153.798C47.0564 155.121 46.8661 156.215 46.5816 157.081C46.8181 156.876 47.7558 156.169 49.3948 154.958C51.2702 153.544 52.4283 152.852 52.8691 152.884C53.7508 152.948 54.4902 153.445 55.0874 154.375C55.905 155.321 56.5963 156.479 57.1615 157.849C57.7266 159.22 58.1735 160.693 58.5023 162.267C58.847 163.622 59.2077 164.756 59.5845 165.67C57.2042 167.934 55.6255 171.365 54.8483 175.961C54.3076 180.354 54.0353 184.101 54.0315 187.202C53.9514 188.304 54.0997 189.312 54.4765 190.226C55.0737 191.156 55.4424 192.18 55.5828 193.298C53.583 193.374 51.8678 192.585 50.437 190.93C49.2266 189.291 47.842 188.525 46.2831 188.634C46.2671 188.854 46.1248 189.287 45.8564 189.932C45.8243 190.373 45.8003 190.703 45.7843 190.924C46.0047 190.94 46.3113 191.295 46.7041 191.988C47.0969 192.681 47.2852 193.138 47.2692 193.358C47.2532 193.579 47.135 193.681 46.9146 193.665C46.6781 193.869 46.3395 193.956 45.8987 193.924C45.4579 193.891 44.7024 193.615 43.6324 193.094C42.5784 192.353 41.7288 191.848 41.0835 191.579C41.1156 191.139 40.801 190.894 40.1397 190.846ZM32.3959 169.344C31.955 169.312 31.7026 169.737 31.6385 170.619C31.8109 171.296 32.1175 171.651 32.5583 171.683C33.2196 171.731 33.464 171.416 33.2916 170.739C33.3557 169.857 33.0571 169.392 32.3959 169.344ZM32.8043 163.724L34.1268 163.82L33.9643 161.482L32.6418 161.385L32.8043 163.724ZM32.3398 138.098C32.5442 138.334 32.6304 138.673 32.5983 139.114C32.7867 139.571 32.9751 140.028 33.1635 140.484L33.8247 140.532L34.486 140.58C34.7224 140.376 34.9508 140.282 35.1712 140.298C35.4076 140.093 35.6441 139.889 35.8805 139.685C35.7402 138.567 34.8986 137.952 33.3557 137.839C33.1353 137.823 32.9068 137.918 32.6704 138.122C32.6704 138.122 32.5602 138.114 32.3398 138.098ZM24.1464 136.505L26.7913 136.698C26.651 135.58 25.7152 134.736 23.9839 134.167L24.1464 136.505ZM55.0622 136.425C54.8578 136.189 54.7396 136.291 54.7075 136.732C54.8959 137.189 55.1003 137.425 55.3207 137.441C55.7616 137.473 55.8798 137.371 55.6754 137.135C55.6914 136.914 55.487 136.678 55.0622 136.425ZM39.1204 136.264C41.9857 136.472 43.5065 135.364 43.6827 132.94L39.054 132.603L39.1204 136.264ZM54.5691 134.063C53.9079 134.015 53.5452 134.432 53.4812 135.313C53.4331 135.975 53.7397 136.329 54.4009 136.377C54.8418 136.409 55.0862 136.095 55.1343 135.434C55.1983 134.552 55.0099 134.095 54.5691 134.063ZM34.9001 130.307C34.8841 130.528 34.9783 130.756 35.1827 130.992C35.6235 131.025 35.9461 131.159 36.1505 131.395C37.0642 131.018 37.4589 130.161 37.3345 128.822C37.4306 127.5 37.4947 126.618 37.5267 126.177C35.511 126.474 34.6514 127.63 34.9481 129.646L34.9001 130.307ZM75.5778 123.957C75.3894 123.5 75.8001 122.422 76.8099 120.723L78.3245 118.174L79.3164 118.246C79.5528 118.041 79.8835 118.065 80.3083 118.318C80.7331 118.57 81.1579 118.823 81.5827 119.075C81.1098 119.484 80.7152 120.342 80.3986 121.648C80.3186 122.75 80.3727 123.53 80.5611 123.986C80.513 124.648 80.7476 125.994 81.2647 128.026C81.7818 130.058 82.5673 131.444 83.6213 132.186L82.9601 132.138C80.74 132.198 78.9225 131.29 77.5077 129.415C76.093 127.539 75.4496 125.72 75.5778 123.957ZM53.1196 121.992C53.4323 123.788 54.1397 124.726 55.2418 124.806C54.6766 123.435 55.1274 121.806 56.594 119.918C58.2971 117.826 60.3307 115.758 62.695 113.714C65.2797 111.686 67.8404 109.989 70.3771 108.622C72.9137 107.256 74.7331 106.612 75.8352 106.692C75.3943 106.66 74.4105 106.478 72.8836 106.146C71.3727 105.593 70.4991 105.418 70.2627 105.623C69.8218 105.591 69.1206 106.094 68.1588 107.132C67.4175 108.186 66.9286 108.815 66.6922 109.019C66.4718 109.003 66.039 108.861 65.3937 108.593C64.7645 108.104 64.3477 107.741 64.1433 107.505L63.8127 107.481C62.7107 107.401 61.6467 108.32 60.6209 110.24C59.8316 111.955 59.4289 112.923 59.4128 113.144C59.4449 112.703 59.1703 111.907 58.5892 110.757C58.008 109.607 57.497 109.016 57.0562 108.984C56.6794 108.07 56.3808 107.605 56.1604 107.589C56.2527 109.369 55.81 110.888 54.8322 112.146C53.8545 113.404 52.2555 114.064 50.0354 114.124L49.9633 115.116L49.9393 115.446C50.3641 115.699 50.6547 116.274 50.811 117.172C51.1878 118.085 51.3681 118.652 51.3521 118.873C51.6046 118.448 51.9672 118.031 52.4401 117.622C52.929 116.993 53.3938 116.695 53.8346 116.727C53.8346 116.727 54.1653 116.751 54.8265 116.799C54.7464 117.901 54.4539 118.877 53.949 119.726C53.4602 120.355 53.1837 121.111 53.1196 121.992ZM41.89 111.87C41.858 112.311 41.8099 112.972 41.7458 113.854C41.9182 114.531 42.327 115.004 42.9722 115.273C43.8859 114.896 44.3668 114.377 44.4148 113.716C44.6993 112.85 44.8576 112.197 44.8896 111.756L41.89 111.87ZM77.9035 114.82C77.8555 115.481 78.1621 115.835 78.8233 115.883C79.4846 115.931 79.9254 115.964 80.1458 115.98C80.1778 115.539 80.1157 114.869 79.9593 113.972C80.0234 113.09 79.7168 112.735 79.0395 112.908C78.8191 112.892 78.5747 113.206 78.3062 113.852C78.0538 114.276 77.9196 114.599 77.9035 114.82ZM51.5317 107.253L52.5476 106.994L52.6437 105.672L51.6278 105.931L51.5317 107.253ZM120.3 93.9698C120.724 94.2223 120.472 94.6471 119.542 95.2442C118.849 95.637 118.596 96.0618 118.785 96.5187L119.091 96.8733C118.302 98.5886 117.631 100.202 117.078 101.713C116.541 103.003 116.012 104.183 115.491 105.253C115.191 106.339 114.914 107.095 114.662 107.52C114.409 107.944 113.937 108.353 113.243 108.746C112.55 109.139 112.085 109.437 111.849 109.642C111.644 109.405 111.55 109.177 111.566 108.956L111.614 108.295C111.774 106.091 112.225 104.462 112.966 103.408C113.708 102.354 114.543 101.528 115.473 100.931C116.639 100.13 117.585 99.312 118.31 98.4784C119.272 97.4404 119.935 95.9375 120.3 93.9698ZM62.1653 102.708C61.9449 102.692 61.8187 102.904 61.7867 103.345C61.7546 103.786 61.8488 104.014 62.0692 104.03C62.5261 103.842 62.7625 103.638 62.7785 103.417C62.8106 102.976 62.6062 102.74 62.1653 102.708ZM73.9292 100.904C73.8972 101.345 74.282 102.148 75.0835 103.314C76.1055 104.496 76.9471 105.111 77.6084 105.159L82.2245 96.521C81.7997 96.2686 80.934 95.9841 79.6276 95.6676C78.5415 95.3671 77.7781 95.2008 77.3372 95.1688L76.0148 95.0727L75.0229 95.0006C74.7705 95.4254 74.494 96.1809 74.1935 97.2669C74.1134 98.369 74.0574 99.1404 74.0253 99.5812L73.9292 100.904ZM61.2513 96.9912C60.8265 96.7388 60.59 96.9432 60.542 97.6044C60.5099 98.0452 60.7223 98.1714 61.1792 97.9831C61.62 98.0151 61.8484 97.9209 61.8645 97.7005C61.8965 97.2597 61.6921 97.0232 61.2513 96.9912ZM106.774 88.0015C105.876 88.1579 105.285 88.6689 105.001 89.5345C104.953 90.1957 105.023 90.7548 105.211 91.2116L106.864 91.3317L106.774 88.0015ZM100.732 84.2389C100.291 84.2068 100.039 84.6316 99.975 85.5133C99.9269 86.1745 100.123 86.5212 100.564 86.5532C101.241 86.3808 101.604 85.964 101.652 85.3028C101.716 84.4211 101.41 84.0665 100.732 84.2389ZM109.124 78.5336C108.855 79.1789 108.595 79.7139 108.342 80.1387C108.074 80.7839 107.916 81.4372 107.868 82.0984L107.795 83.0903L108.811 82.8317L109.124 78.5336ZM85.8475 69.5303C85.6233 72.6161 84.2349 74.9525 81.6822 76.5397C81.7142 76.0988 81.636 75.65 81.4477 75.1931C81.2593 74.7363 81.1811 74.2875 81.2131 73.8466C81.3413 72.0833 81.6498 70.8871 82.1386 70.2579C82.6275 69.6287 83.8638 69.3861 85.8475 69.5303ZM96.2169 68.6219C96.3892 69.2992 96.4434 70.0786 96.3793 70.9603C96.5517 71.6375 96.9605 72.1104 97.6057 72.3789L97.5394 68.718L96.2169 68.6219ZM117.184 72.8044L118.507 72.9005L118.603 71.578L117.184 72.8044ZM104.723 65.9163C104.659 66.798 104.807 67.8059 105.168 68.94C105.544 69.8536 106.284 70.3505 107.386 70.4306L108.378 70.5027C108.205 69.8254 108.514 68.6292 109.303 66.9139C110.109 64.9782 110.433 63.5616 110.277 62.6639C110.309 62.2231 110.034 61.4276 109.453 60.2775C108.872 59.1274 108.597 58.3319 108.629 57.8911C107.872 59.1655 107.005 60.4319 106.027 61.6903C105.065 62.7283 104.63 64.137 104.723 65.9163ZM128.221 67.2914C127.78 67.2594 127.535 67.574 127.487 68.2352C127.455 68.676 127.668 68.8023 128.125 68.6139C128.581 68.4255 128.818 68.2211 128.834 68.0007C128.866 67.5599 128.661 67.3234 128.221 67.2914ZM112.386 56.5022C111.962 56.2498 111.725 56.4542 111.677 57.1154C111.645 57.5562 111.849 57.7927 112.29 57.8247C112.747 57.6363 112.984 57.4319 113 57.2115C113.032 56.7707 112.827 56.5343 112.386 56.5022ZM61.0499 49.4483L62.4444 48.5525L61.0979 48.787L61.0499 49.4483ZM93.5524 45.8275C93.1116 45.7954 92.8672 46.11 92.8191 46.7713C92.7711 47.4325 92.9675 47.7791 93.4083 47.8112C94.0695 47.8592 94.4242 47.5526 94.4722 46.8914C94.5203 46.2301 94.2137 45.8755 93.5524 45.8275ZM85.6896 44.259L87.0121 44.3551C87.0602 43.6939 86.6754 42.8904 85.8578 41.9447L85.6896 44.259ZM99.6237 44.6068L100.946 44.7029L101.018 43.711L99.6958 43.6149L99.6237 44.6068ZM102.773 37.8559C102.677 39.1784 102.691 40.5089 102.816 41.8474C102.94 43.1859 103.781 43.801 105.34 43.6927L106.663 43.7888L105.442 37.7175L102.773 37.8559ZM53.6069 32.9539C52.7253 32.8898 52.2524 33.2986 52.1883 34.1803C52.1563 34.6211 51.974 35.605 51.6415 37.1318C51.5454 38.4543 51.4813 39.336 51.4493 39.7768L53.433 39.9209C53.4651 39.4801 53.6153 38.9371 53.8838 38.2919C53.9158 37.851 53.9478 37.4102 53.9799 36.9694C54.2323 36.5446 54.3745 36.1118 54.4066 35.6709L54.4546 35.0097L54.5027 34.3484C54.5667 33.4668 54.2681 33.0019 53.6069 32.9539ZM94.2606 26.9341C92.7177 26.8219 91.6618 27.6315 91.0928 29.3628C90.5399 30.8737 90.2234 32.1801 90.1433 33.2822C91.7022 33.1739 92.7581 32.3643 93.311 30.8535C94.0844 29.3586 94.4009 28.0521 94.2606 26.9341ZM51.5625 24.4962C51.7509 24.9531 51.7971 25.8427 51.701 27.1652C51.8253 28.5037 52.4305 29.3232 53.5165 29.6237C54.1938 29.4513 54.5805 28.7039 54.6766 27.3814C54.8047 25.6181 53.7667 24.6564 51.5625 24.4962ZM87.0293 30.397C87.4701 30.429 88.0451 30.1385 88.7544 29.5252C89.4797 28.6916 90.1029 27.7398 90.6238 26.6698C91.3651 25.6158 91.9882 24.664 92.4931 23.8143C92.998 22.9647 93.2584 22.4297 93.2744 22.2093C93.0258 19.5323 91.4688 18.0897 88.6034 17.8815L87.2809 17.7854L87.0293 30.397ZM48.8936 24.6346C48.4367 24.823 48.1763 25.358 48.1122 26.2397C48.2846 26.9169 48.5992 27.1614 49.056 26.973C49.4968 27.005 49.6311 26.6824 49.4587 26.0052C49.5228 25.1235 49.3344 24.6667 48.8936 24.6346ZM25.9847 24.2995C26.0167 23.8586 25.7021 23.6142 25.0409 23.5661C24.6 23.5341 24.584 23.7545 24.9928 24.2274C24.9608 24.6682 25.055 24.8966 25.2754 24.9126C25.7162 24.9447 25.9527 24.7403 25.9847 24.2995ZM41.74 22.453L43.0865 22.2185L43.2547 19.9041L41.9082 20.1387L41.74 22.453ZM54.7601 17.0841C55.3732 17.7934 56.2309 18.1881 57.3329 18.2682L57.5492 15.2926C56.6675 15.2285 55.7378 15.8257 54.7601 17.0841ZM66.572 14.6188C66.5239 15.28 66.4759 15.9413 66.4279 16.6025C66.6002 17.2797 66.8908 17.8548 67.2996 18.3277L67.5639 14.6908L66.572 14.6188ZM82.9589 17.8037C82.2976 17.7556 81.935 18.1725 81.8709 19.0541C82.0433 19.7314 82.4601 20.094 83.1213 20.1421C83.5621 20.1741 83.6964 19.8515 83.524 19.1742C83.5881 18.2926 83.3997 17.8357 82.9589 17.8037ZM74.5309 14.8647C74.0901 14.8327 73.8376 15.2575 73.7736 16.1392C73.7095 17.0208 73.8979 17.4777 74.3387 17.5097C75.2204 17.5738 75.6932 17.165 75.7573 16.2833C75.8213 15.4017 75.4126 14.9288 74.5309 14.8647ZM79.3815 7.57278C75.8389 7.53694 74.0496 9.29034 74.0138 12.833L73.8697 14.8167C75.2562 14.0311 76.4303 13.1193 77.3921 12.0813C78.5902 10.8389 79.2534 9.33609 79.3815 7.57278ZM90.713 11.7198C90.8533 12.8379 91.7651 14.0121 93.4483 15.2422L93.4723 14.9116C93.1917 12.6755 92.2719 11.6115 90.713 11.7198Z" fill="#FFDC47"/>
</svg>
